<svg xmlns="http://www.w3.org/2000/svg" viewBox="0 0 726.27 605.5"><defs><style>.cls-1{fill:#c2d6ff;}.cls-2{fill:#d3c4ba;}.cls-3{fill:#1e3340;}.cls-4{fill:#c9bbb1;}.cls-5{fill:#0c0c0d;}.cls-6{fill:#b4d2d9;}.cls-7{fill:#f98a8a;}.cls-8{fill:#ea7373;}.cls-9{fill:#d86666;}.cls-10{fill:#e3e4ff;}.cls-11{fill:#c5c6fe;}.cls-12{fill:#18287d;}.cls-13{fill:#edd8ca;}.cls-14{fill:#fbe9dc;}.cls-15{fill:#f9eadc;}.cls-16{fill:#fdeee7;}.cls-17{fill:#fff4f0;}.cls-18{fill:#0f1d5b;}.cls-19{fill:#1a2a63;}.cls-20{fill:#42858c;}.cls-21{fill:#fc7575;}.cls-22{fill:#fd5e5a;}.cls-23{fill:#1b2b80;}.cls-24{fill:#0b1742;}.cls-25{fill:#2846a6;}.cls-26{fill:#fff;}.cls-27{fill:#22346d;}</style></defs><title>Asset 1</title><g id="Layer_2" data-name="Layer 2"><g id="_Layer_" data-name="&lt;Layer&gt;"><ellipse class="cls-1" cx="363.14" cy="594.31" rx="363.14" ry="11.19"/><path class="cls-2" d="M542.55,165.55s-47,16.27-49.79,45.47l12.53,4.43L548.62,186Z"/><path class="cls-3" d="M213,186.65h-.1a1.22,1.22,0,0,1-1.11-1.31c2.21-27,1.12-36.41,1.12-37.84-.58-12.58-1.38-29.81-14.11-35.46s-39.44-10.7-42.33,2.77c-2,9.19,6.19,28.72,9.73,36a1.21,1.21,0,0,1-2.18,1.07c-4.24-8.71-12-28-9.93-37.57,3.33-15.5,31-11,45.7-4.48,14.05,6.23,14.91,23.84,15.61,38.84.59,12.51-.22,25.12-1.19,36.88A1.21,1.21,0,0,1,213,186.65Z"/><polygon class="cls-4" points="109.55 390.28 236.6 397.27 222.61 265.69 152.69 265.69 109.55 390.28"/><path class="cls-5" d="M168.3,349.07s20.46,209.16,25.58,231.49v14.1h39.23s-2.37-4.7-6.8-4.7-15.64-5.09-18.71-8.62,1.93-292.59,1.93-292.59H160.8Z"/><polygon class="cls-2" points="157.89 107.26 161.86 121.72 208.16 116.81 198.46 104.43 157.89 107.26"/><path class="cls-3" d="M201.38,306.73l-6.82,33.56S140,522.09,142.38,585.62c0,0,4.6,7.53,20.81,12,.87.24,1.7,3.2,1.7,3.2H122.61L125,588s1.37-216.16,1.37-241.33,6.82-57.94,6.82-57.94h70.93Z"/><path class="cls-6" d="M232.41,243.46c0-61.9-19.37-123.47-33.84-131.3,0,0-16.84-1.08-25.5-1.35-12.92-.41-32.8,5.68-43.53,39.83-9.76,31.06-6.83,125.52-5.33,171.79,36.5,0,63.19-1.14,98.6-1.14C223.36,310.49,232.41,262.91,232.41,243.46Z"/><path class="cls-7" d="M175.32,35.4c0-9.83,10.32-15.5,20.15-15.13,9.63.37,19,.48,22.37,6.39,8,14.24-4.39,40.89-4.39,40.89S206.88,80,193.74,80C184.74,80,175.4,53.79,175.32,35.4Z"/><path class="cls-8" d="M166,62.88s-3.55,45.19-2.27,54.68,27.46,11.87,32.57,4.57,0-38.52,0-38.52Z"/><path class="cls-9" d="M198.37,102.55c-.55-9.64-2.08-18.94-2.08-18.94L166,62.88s-1.11,12.72-1.77,26.53a6.73,6.73,0,0,0,1.77-1.1c3.47-3.8,7.48-17,7.48-17s1.85,13.4,1.85,20.8c0,4.71,8.52,7.83,16.87,9.47a21.85,21.85,0,0,0,3-6,23.74,23.74,0,0,1-1.49,6.33C195.3,102.14,196.88,102.37,198.37,102.55Z"/><path class="cls-10" d="M210.08,85.62a18.15,18.15,0,0,0,4,5.77,20.44,20.44,0,0,0,4.73-12.34c0-7.12-4.43-11-4.43-13.61,0,0-1.55,6-9.94,7.31s-15.15-5.11-18.35-8.31-7.3-6.26-7.3-11.5-.59-25.69-.59-25.69-.87-3.51-10,1.05-8,8-9.49,15,.55,12-5.11,13.87a14,14,0,0,0-7.49,19.17c4.38,8.94,16.43,10,19.9,6.57s7.48-15.52,7.48-15.52,1.85,12.23,1.85,19c0,4.3,8.52,7.15,16.87,8.65a19.44,19.44,0,0,0,3-5.53,20.1,20.1,0,0,1-1.49,5.78,74.91,74.91,0,0,0,11,1,11.23,11.23,0,0,0,6.86-2.46A17.91,17.91,0,0,1,210.08,85.62Z"/><path class="cls-11" d="M167.3,28c-8.4,3.78-8.44,8-9.67,14.14-2,8.9.39,12.13-5,13.87a15.13,15.13,0,0,0,2.16,28.55c3.75.93,8.34,1.15,11.25-1.64-3.24,2.19-7.43,1.56-10.79.28-12.27-4.68-11.83-20.57-1.58-24.47,7.12-1.84,5-8.38,6.49-16.12,1.1-5.75,0-9,7.85-13.35,2.75-1.62,8.43-4.65,10.22-2C176.75,24.1,170.45,26.56,167.3,28Z"/><path class="cls-7" d="M182.79,46.74a7.45,7.45,0,0,0-7.47-2.56c-4.77,1.1-1.1,13.33,3.08,13.33S182.79,46.74,182.79,46.74Z"/><path class="cls-12" d="M210,44c-.06,14.23-.72,12.76-1.53,19.69-1.54-.32-3.11-.55-4.68-.79a49.49,49.49,0,0,0,5.47,2C209.47,62.41,212.81,55.61,210,44Z"/><path class="cls-10" d="M195.84,41.72a10.16,10.16,0,0,1,5.93,0,32,32,0,0,1,4.93,1.46s.46-3.84-1.92-3.84-3.1,1.74-4.84,0S195.84,41.72,195.84,41.72Z"/><path class="cls-10" d="M221.22,41.33a5.72,5.72,0,0,0-4.39.15,19.56,19.56,0,0,0-3.6,1.59s-.47-3.83,1.29-3.89,2.36,1.66,3.58-.12S221.22,41.33,221.22,41.33Z"/><path class="cls-12" d="M202.14,45.17a1.81,1.81,0,1,1-1.79-2.1A2,2,0,0,1,202.14,45.17Z"/><path class="cls-12" d="M218.2,46.09A1.81,1.81,0,1,1,216.42,44,2,2,0,0,1,218.2,46.09Z"/><path class="cls-9" d="M178.88,47.57s-2.92-2.5-3.56-.29.88,6.87,2.94,7.15S178.88,47.57,178.88,47.57Z"/><path class="cls-12" d="M208.16,69.46c-3,2.87-8.74,2.53-13.74-2.66a.73.73,0,0,1,1-1.09C196.63,66.15,200.23,71.52,208.16,69.46Z"/><path class="cls-13" d="M181,185.44c.1.92-21.52-72.82-21.52-72.82a84.45,84.45,0,0,0-16.9,8.25c-9.63,5.95-23,47.06-23,47.06s3.27,97.23,3.27,104.63c0,4-6.93,63.52-13.34,117.72l79,7C187.32,321.68,178.67,164.33,181,185.44Z"/><path class="cls-14" d="M199.41,112.16s27,10.13,33,78.16,6,207,6,207H211.12s-3-198.44-3-212S199.41,112.16,199.41,112.16Z"/><path class="cls-8" d="M199.41,202.57l8.33-4.19s7.87-6.16,10.48-7.27,18.38,2.12,18.38,2.12l5.86,9.34s-19.66.57-23.56,4.47a47.69,47.69,0,0,1-10,7.07Z"/><path class="cls-8" d="M188.5,205.46c-1.54,0-8.38-6.84-8.38-6.84l-6.36-15.12s-17.18-9-20-9-6.51,17.91-5.45,21.55,17.43,10.63,17.43,10.63l14.44,9.93Z"/><path class="cls-15" d="M149,125.5s-6.74-10.61-26.42,9.07S98.36,251.64,139.18,254.72s92.06-38.11,92.06-38.11l-24.8-19.24s-34.08,23.6-45.64,12S168.31,144.79,149,125.5Z"/><path class="cls-16" d="M208.16,119.45s21.63,10.58,33.78,56.7,1.56,73.45-24.74,69.55-56.4-36.29-56.4-36.29l22-12.28s18.09,10,31.84,7S217.75,126.75,208.16,119.45Z"/><path class="cls-8" d="M163.84,169.49s5.87,3,7.49,7.08,2.81,7.83,2.81,7.83l-7.37-2.26a24.33,24.33,0,0,0-.47-5.19C165.76,174.65,158.48,169.49,163.84,169.49Z"/><polygon class="cls-17" points="181 185.44 157.89 107.26 144.61 116.9 160.8 144.97 159.59 153.75 181 185.44"/><polygon class="cls-17" points="198.46 104.43 208.12 183.5 211.94 143.96 208.16 139.68 207.73 115.68 198.46 104.43"/><path class="cls-18" d="M591.08,335.49S565.83,552.4,559.52,575.55v14.62H511.1s2.93-4.87,8.4-4.87,19.3-5.28,23.09-8.94-2.39-303.43-2.39-303.43h60.14Z"/><polygon class="cls-2" points="598.2 88.88 599.36 107 556.4 102.12 566.44 89.82 598.2 88.88"/><path class="cls-19" d="M563,291.73l7,35.09s55.89,190.07,53.44,256.49c0,0-4.71,7.87-21.31,12.53-.89.25-1.74,3.34-1.74,3.34h43.31l-2.44-13.36s-1.4-226-1.4-252.32-7-60.57-7-60.57H560.16Z"/><path class="cls-20" d="M533.91,227.94c0-61.49,18-122.65,31.39-130.43,0,0,15.62-1.08,23.66-1.35,12-.4,30.42,5.65,40.38,39.57,6.27,21.38,3.31,73,2.64,118-.3,19.94,2.73,38.58,2.3,52.7-33.85,0-58.62-1.13-91.47-1.13C542.3,294.53,533.91,247.27,533.91,227.94Z"/><path class="cls-14" d="M581.6,170.3c-.1.92,20-72.34,20-72.34a75.69,75.69,0,0,1,15.67,8.2c8.94,5.91,21.3,46.75,21.3,46.75s-3,96.59-3,103.94c0,3.95,6.43,63.1,12.37,116.94l-73.24,6.95C575.74,305.64,581.6,170.3,581.6,170.3Z"/><path class="cls-13" d="M565.3,97.51s-25.83,10.06-31.39,77.64-5.56,205.59-5.56,205.59h25.31s2.74-197.14,2.74-210.66S565.3,97.51,565.3,97.51Z"/><polygon class="cls-17" points="581.65 170.1 598.2 88.88 615.36 102.22 600.34 130.09 601.46 138.83 581.65 170.1"/><polygon class="cls-17" points="566.44 89.82 556.44 168.37 552.89 129.1 556.4 124.84 556.4 102.12 566.44 89.82"/><path class="cls-21" d="M585.68,55.2s8.57,29.43,7.44,43.9c0,0-18.19,18.26-25.42,13.11l-.94-36.74Z"/><path class="cls-22" d="M585.68,55.2,566.76,75.47l.48,18.64c8.76-.4,17-13.64,17.9-29.36a44,44,0,0,1,1.12-7.48C585.9,56,585.68,55.2,585.68,55.2Z"/><path class="cls-21" d="M551,27.71a5.22,5.22,0,0,0-.89,1.6c-1.36,3.44-2.49,11.2-.27,20.11,2.71,10.85,7.43,33.76,15.77,33.76S585.12,71.85,586,58.34s6.65-20.26,1.69-30.63S551,27.71,551,27.71Z"/><path class="cls-22" d="M587.71,27.71c-5-10.37-36.68,0-36.68,0a5.22,5.22,0,0,0-.89,1.6c-1.36,3.44-2.49,11.2-.27,20.11.36,1.44.76,3.11,1.2,4.9,3.77-2.78,6.53-8,9-14.14.41-.52.6-4.61,7.86-7.58,1.51,3.54,3.26,3.31,7.22,11.26.26,16.11,7.26,18.47,10.29,18.73a27.38,27.38,0,0,0,.62-4.25C586.92,44.83,592.67,38.08,587.71,27.71Z"/><path class="cls-23" d="M578.7,42.9s-2.93-6.27-5.85-9.4-2-5.79-2-5.79-10.52,1.93-13.59,9.65-6.72,19-18.3,14-9.56-21.23-6.85-21.23,5.18-2.41,5.18-2.41S546.94,13,552.12,13s.68-5.07,9.47-6.52,15.76,7,15.76,7,3.83-4.58,10.59,0,3.63,22.43,1.25,28.7-2.54,16.52-2.54,16.52S578.7,60.51,578.7,42.9Z"/><path class="cls-21" d="M583.37,39.92a3.47,3.47,0,0,0-6.53-.66c-1.31,2.44-2.08,5.45.06,7.74,4.28,4.59,8.11-.48,6.76-6C583.57,40.6,583.47,40.25,583.37,39.92Z"/><path class="cls-22" d="M576,43.75c.1-1.33,1.46-5.19,3.43-3.86s3.56,6.09.32,7S575.9,45,576,43.75Z"/><path class="cls-12" d="M561.59,66.62h-4.74V54.24a.47.47,0,0,1,.45-.48.46.46,0,0,1,.45.48V65.66h3.84a.48.48,0,0,1,0,1Z"/><ellipse class="cls-12" cx="562.95" cy="52.67" rx="1.94" ry="2.53"/><path class="cls-12" d="M555,54.16c0,1.29-.74,2.33-1.65,2.33s-1.66-1-1.66-2.33.74-2.33,1.66-2.33S555,52.87,555,54.16Z"/><path class="cls-12" d="M564.79,75.83a5.61,5.61,0,0,1-1.58-.19.47.47,0,0,1-.29-.56.44.44,0,0,1,.53-.31c.18.07,4.27,1.27,7.71-3.53a.4.4,0,0,1,.59-.09.48.48,0,0,1,.08.64C569.38,75.22,566.52,75.83,564.79,75.83Z"/><path class="cls-12" d="M559.44,46.44S561.66,44,564.36,44s4.8,3.38,4.8,3.38-2-2.74-4.35-2.25-5.37,2.89-5.37,2.89Z"/><path class="cls-17" d="M589.7,296.54H628a0,0,0,0,1,0,0v28.38a16.78,16.78,0,0,1-16.78,16.78h-4.77a16.78,16.78,0,0,1-16.78-16.78V296.54A0,0,0,0,1,589.7,296.54Z"/><rect class="cls-17" x="628.03" y="242.19" width="9.99" height="21.94"/><path class="cls-21" d="M610.26,174.93l0-.06C609.85,174.84,609.88,174.86,610.26,174.93Z"/><polygon class="cls-3" points="506 214.87 442.17 169.27 508.44 163.26 558.56 216.13 506 214.87"/><path class="cls-21" d="M539.61,196.24s6.79,1.52,9.31,4.21c3.21,3.44,10.82,9,14,9s16.83,1.33,16.83,1.33l2.29,15s-50.85-11.65-53.24-14.21,11.92,1.9,11.92.76-17.25-2.43-16.36-5.31,15.91,3.88,17.25,2.45-18.14-3.8-18.14-6.85,19.38,4.4,19.38,4.4.36-1.54-4.89-4-10.32-4.47-9.16-5.71,14.57,6.64,16.33,4.75Z"/><path class="cls-17" d="M611.21,112.68s-7.39,13.51-5.92,33,4,49.33-.14,59.07-34.45,0-34.45,0v23s43.95,17.85,56.68,12,11.51-56.15,11.51-80.81S619.33,95,611.21,112.68Z"/><path class="cls-21" d="M496.65,199.91a33.52,33.52,0,0,0-3.84,5.48c-2.43,4,1.47,7.94,2.22,8.78a32.52,32.52,0,0,0,5.88,4.8,13.19,13.19,0,0,0,4.69,2c2.65.54,10.69-9.43,10-10.35-.45-.61-1.05-1.09-1.73-.88s-8.59,5.74-8.59,5.74,7.66-7.87,7.39-10.15-1.66-2-2.3-1.38-9.9,8-9.9,8,7.06-9.35,6.88-10.84-2.12-2.49-5.26,1.28a60.68,60.68,0,0,1-6,5.6s4.31-7,4.05-9.27S496.65,199.91,496.65,199.91Z"/><polygon class="cls-4" points="367.74 114.84 401.52 113.43 400.08 208.37 359.86 211.02 367.74 114.84"/><path class="cls-21" d="M499.2,323.57a38.65,38.65,0,0,1-2-3.91c-1.74-3.84-3.46-4.82-4.82-4.68-.7.82-.12,2.35,2.4,7.6,1.16,2.43,2.76,5.75,2.59,6.41-1.6,2.89-4-2.61-4.9-5.15s-1.54-5.5-3.49-5.3c-.64.06-.27,3.69,1,8,4.75,15.65-.82,11.49-2.38,3.6-1.43-7.19-1.94-10.47-2.82-10.38-.73.63-.61,2.28,0,7.4.36,3,.13,8-.5,8.76-1.48,1.29-2-1.38-2-2.9,0-.15-.36-15.69-3.95-15.86s-3.27,4.2-3,6.8-2.66,4.89-3.57,4.13c-1.13-.95,1.94-4.56,1.12-8.77s-1.51-10.69-1.33-12.38c0-.05,0-.68,0-.68s-4.48-2.44-12.68-3.6q2.5-5.56,4.78-11.1c18.3,7.39,30.71,18.95,32.62,21.72a21.9,21.9,0,0,1,4.05,9.93C500.4,323.69,499.47,324,499.2,323.57Z"/><polygon class="cls-4" points="318.88 373.16 442.17 373.16 419.77 255.83 347.48 247.9 318.88 373.16"/><path class="cls-13" d="M456.28,272.22c-5.33-7.57-8.72-33.37-8.82-34.82-1-40.06-3.81-84.1-12.12-95.89-12.86-18.25-19.73-5.95-25.83,27.41-1.7,9.31.54,26.12,4.65,44.7,4.53,27.33,12,52.16,17.1,64.69,8.21,20.21,30.75,37.33,30.75,37.33l10.49-23.21S461.7,279.91,456.28,272.22Z"/><path class="cls-3" d="M420.31,580.77c-17.07,0-19.23-22.31-19.23-22.31L415.86,448l15.95-132-4.51-39.08H339.51l-.62,34.43-9.22,134.17L356,555.94s-2.17,22.31-19.23,22.31-16.66,6.87-16.66,6.87h50s-2.91-24.73-2.91-27-3.13-121.58-3.13-121.58L383,327.77l7.41,114.15s-.5,116.41-.5,118.7-2.92,27-2.92,27h50S437.38,580.77,420.31,580.77Z"/><path class="cls-5" d="M427.89,282l-.59-5.13H339.51l-.08,4.5,18.43,6.13a78.67,78.67,0,0,0,46.22,1.16Z"/><path class="cls-20" d="M433.39,136.75c-9.55-10.5-31.64-27.25-56-23.21l-36,12.93-3.67,51.9,0,102.42,90.73,1,8.63-99.7S442.93,147.25,433.39,136.75Z"/><path class="cls-13" d="M337.74,178.37l3.67-51.9c-27.32,30.05-56.74,75.94-58.31,93.8-1,11.8,20.83,42.88,35.78,60,2.6-3.87,5.94-10.83,10.08-12.54-7-10.36-16.12-25.79-18.69-39.57C305.9,204.82,337.74,178.37,337.74,178.37Z"/><path class="cls-21" d="M373.44,90.57s-.28,22.59-2.49,34.1c-.85,4.45,1.23,9,5.09,10.65a19.42,19.42,0,0,0,11.35,1c12.28-2.29,12.69-15.8,12.69-15.8l-4.14-41.2Z"/><path class="cls-22" d="M395.94,79.36l-22.5,11.21s-.1,8.34-.68,17.47c5.87.28,13.25-3,21.08-12.81q1.74-2.19,3.26-4.35Z"/><path class="cls-21" d="M374.9,32.64a39.51,39.51,0,0,0-11,17.17c-3.33,10.76-6.25,18.55-6.25,18.55l3.54,2.29s-2.82,15-.62,20.15c3.33,7.78,17.38,14.08,33.3-3.44s17.27-33,14.57-40.52S381.14,28.75,374.9,32.64Z"/><path class="cls-24" d="M398.83,49.58a19.39,19.39,0,0,0-17.27-3.66c-10.2,2.75-13.64-1.49-11.66-3.66,0,0-8.95.23-12.28-7.79s-2.5-32.28,13.32-27.7,12.63,15.57,12.63,15.57,5.06-5.27,9.85-2.52,4.17,6.64,4.17,6.64S402,35.39,408,36.53,413.4,51,413.4,51s3.54,2.74,1,12.36-17.19,24.5-17.19,29.08c0,0-3.62-6-.71-15.34s2.92-14.88-.2-14.88S398.83,49.58,398.83,49.58Z"/><path class="cls-21" d="M394.33,68.39s1-7.9,3.28-7.9,4.37.86,3.83,5.32-2.89,9.45-5.86,7.38A3.49,3.49,0,0,1,394.33,68.39Z"/><path class="cls-24" d="M421.17,50.28a2.68,2.68,0,0,0-1.29-1.57c-2-.92-4.6,1.07-6.33,2.44l-.29-.39a13.44,13.44,0,0,1,4.14-3.49,4.11,4.11,0,0,1,5.78,2.27Z"/><path class="cls-24" d="M419.59,60a8.72,8.72,0,0,0-.07-3.41c-1.25-5.53-7.37-5.05-7.67-5.21V51c.18.06,8.85-1.79,10.09,7.13a10.12,10.12,0,0,1,.1,2.38Z"/><path class="cls-25" d="M373.09,56.68c0,1.94-.78,3.52-1.75,3.52s-1.74-1.58-1.74-3.52.78-3.53,1.74-3.53S373.09,54.73,373.09,56.68Z"/><path class="cls-25" d="M377.42,51c-3.19-2.12-7.67-1.34-7.72-1.33l-.2-1.36c.2,0,5-.87,8.57,1.52Z"/><path class="cls-26" d="M373.79,76.74c-4.24,1.6-10.13,1.07-13.6.54-.13,1.1-.25,2.28-.33,3.47C368.89,81.06,373.79,76.74,373.79,76.74Z"/><path class="cls-14" d="M367.74,114.84,361,373.16H318.88l12.41-117.33,1.56-73s1.89-50.6,10.46-59.17S367.74,114.84,367.74,114.84Z"/><path class="cls-22" d="M395.83,65.2s1.32-2.68,2.5-2.3,1.45,5.76-.65,8S393.81,69.48,395.83,65.2Z"/><path class="cls-14" d="M401.52,113.43l-4.43,259.73h45.08s1.7-205.86-3.29-227.38S401.52,113.43,401.52,113.43Z"/><rect class="cls-26" x="408.94" y="155.63" width="24.95" height="19.84"/><rect class="cls-24" x="419.39" y="147.94" width="3.87" height="10.32"/><polygon class="cls-17" points="353.15 343.47 322.26 341.22 326.54 293.69 353.15 293.69 353.15 343.47"/><path class="cls-21" d="M320.15,278.27l7.14,15.42h24S329.88,269.76,327,266.92,315.5,273.62,320.15,278.27Z"/><path class="cls-13" d="M301.64,258.18a278.77,278.77,0,0,0,17.24,22.1c2.6-3.87,5.94-10.83,10.08-12.54a170.34,170.34,0,0,1-11.09-18.67A108.52,108.52,0,0,0,301.64,258.18Z"/><polygon class="cls-17" points="442.33 346.35 412.03 347.29 412.03 296.37 442.45 296.37 442.33 346.35"/><path class="cls-3" d="M166.67,203c.62-1.52-.28-2.4-.55-3.54l-3.5-9.86c-3.31-9.84-8.36-26.8-1.91-34.44a10.68,10.68,0,0,1,2.63-2.36,14.14,14.14,0,0,1,9.78-2.34c6.7,1.09,10.14,9.09,12.68,16a244.68,244.68,0,0,1,6.46,23.66c.32,1.13.26,2.34,1.36,3.27a2.49,2.49,0,0,1,.4,3.3c-1.57,2.21-4.78,0-3.65-2.51.59-1.34,0-2.4-.15-3.55l-2.35-10.17c-3.59-14.74-8.49-32.47-20.92-27.45-8.75,2.79-8.49,13-6.42,22.68,1.93,9,7.56,23.52,7.39,23,.53,1,.43,2.33,1.86,3a2.73,2.73,0,0,1,1.31,3.42c-1.2,3.18-5.65,1.14-4.45-2Z"/><path class="cls-3" d="M154.05,114.3c-2.05,9.57,5.69,28.86,9.93,37.57a1.21,1.21,0,0,0,2.18-1.07c-3.54-7.27-11.71-26.8-9.73-36,.88-4.12,2.79-6.78,7.06-7.94l-4.74.33A11,11,0,0,0,154.05,114.3Z"/><path class="cls-3" d="M215.36,148.66c-.53-11.41-1.18-24.31-7.62-32.58l.08,4.67c4.16,7.73,4.66,18.29,5.05,26.75,0,1.43,1.09,10.85-1.12,37.84a1.22,1.22,0,0,0,1.11,1.31h.1a1.21,1.21,0,0,0,1.21-1.11C215.14,173.78,216,161.17,215.36,148.66Z"/><path class="cls-3" d="M218.48,189.1a7.54,7.54,0,1,1-7.52-8A7.78,7.78,0,0,1,218.48,189.1Z"/><path class="cls-1" d="M211,193.23a3.64,3.64,0,1,1,3.64-3.65A3.65,3.65,0,0,1,211,193.23Z"/><polygon class="cls-3" points="159.11 106.96 158.49 107.39 163.49 106.87 159.11 106.96"/><path class="cls-27" d="M615.36,63.8a1,1,0,0,1-.3,0,1.21,1.21,0,0,1-.88-1.47c8.59-34.49-14.5-60-14.73-60.25a1.23,1.23,0,0,1,.07-1.72,1.21,1.21,0,0,1,1.71.07c.25.26,24.22,26.7,15.31,62.49A1.23,1.23,0,0,1,615.36,63.8Z"/></g></g></svg>