<svg xmlns="http://www.w3.org/2000/svg" xmlns:xlink="http://www.w3.org/1999/xlink" viewBox="0 0 2360 1874.19"><defs><style>.cls-1{isolation:isolate;}.cls-2{fill:#3ebfdf;opacity:0.25;}.cls-11,.cls-12,.cls-13,.cls-14,.cls-15,.cls-16,.cls-17,.cls-18,.cls-19,.cls-2,.cls-20,.cls-21,.cls-22,.cls-23,.cls-24,.cls-25,.cls-26,.cls-27,.cls-28,.cls-29,.cls-30,.cls-31,.cls-32,.cls-33,.cls-34,.cls-35,.cls-36,.cls-37,.cls-38,.cls-39,.cls-4,.cls-40,.cls-41,.cls-42,.cls-43,.cls-44,.cls-45,.cls-46,.cls-47,.cls-48,.cls-49,.cls-50,.cls-51,.cls-52,.cls-53,.cls-54,.cls-55,.cls-56,.cls-57,.cls-58,.cls-59,.cls-6,.cls-60,.cls-61,.cls-62,.cls-63,.cls-64,.cls-65,.cls-66,.cls-67,.cls-68,.cls-69,.cls-7,.cls-70,.cls-71,.cls-72,.cls-73,.cls-74,.cls-75,.cls-76,.cls-77,.cls-78,.cls-79,.cls-80,.cls-81,.cls-82,.cls-83,.cls-84,.cls-85,.cls-86,.cls-9{fill-rule:evenodd;}.cls-3{fill:#d1edfb;}.cls-14,.cls-15,.cls-17,.cls-3,.cls-4,.cls-44,.cls-45,.cls-47{opacity:0.5;}.cls-4,.cls-83{fill:#31accb;}.cls-5{fill:#2980fc;}.cls-6{fill:#3999f4;}.cls-7{fill:#8bc8da;}.cls-18,.cls-8{fill:#c2e5f6;}.cls-9{fill:url(#linear-gradient);}.cls-10{fill:#0b436a;}.cls-11{fill:#071a3b;}.cls-12{fill:#105b90;}.cls-13{fill:url(#linear-gradient-2);}.cls-14,.cls-15,.cls-17,.cls-47,.cls-51,.cls-55,.cls-58,.cls-76{mix-blend-mode:multiply;}.cls-14{fill:url(#linear-gradient-3);}.cls-15{fill:url(#linear-gradient-4);}.cls-16{fill:url(#linear-gradient-5);}.cls-17{fill:url(#linear-gradient-6);}.cls-19{fill:url(#linear-gradient-7);}.cls-20{fill:#11639d;}.cls-21{fill:url(#linear-gradient-8);}.cls-22{fill:#1c87d5;}.cls-23{fill:#a1d5f1;}.cls-24{fill:#cfecfa;}.cls-25{fill:#b2dcf1;}.cls-26{fill:#a5d6ef;}.cls-27{fill:#c3e4f4;}.cls-28{fill:#64b8d5;}.cls-29{fill:#94cfe5;}.cls-30{fill:url(#linear-gradient-9);}.cls-31{fill:#daeafa;}.cls-32{fill:url(#linear-gradient-10);}.cls-33{fill:url(#linear-gradient-11);}.cls-34{fill:#e7a376;}.cls-35{fill:url(#linear-gradient-12);}.cls-36{fill:#f0b186;}.cls-37,.cls-75{fill:#fff;}.cls-38{fill:#dff4ff;}.cls-39{fill:#effaff;}.cls-40,.cls-45{fill:#c8e8f8;}.cls-41{fill:#000002;}.cls-42{fill:#171e29;}.cls-43{fill:#2b374a;}.cls-44{fill:#566e93;}.cls-46{fill:url(#linear-gradient-13);}.cls-47{fill:#1c8eaa;}.cls-48{fill:url(#linear-gradient-14);}.cls-49{fill:url(#linear-gradient-15);}.cls-50{fill:url(#linear-gradient-16);}.cls-51,.cls-55,.cls-58{opacity:0.3;}.cls-51{fill:url(#linear-gradient-17);}.cls-52{fill:#b7e0f5;}.cls-53,.cls-55{fill:#04304f;}.cls-54{fill:url(#linear-gradient-18);}.cls-56{fill:url(#linear-gradient-19);}.cls-57{fill:url(#linear-gradient-20);}.cls-58{fill:#1466a0;}.cls-59{fill:url(#linear-gradient-21);}.cls-60{fill:url(#linear-gradient-22);}.cls-61{fill:url(#linear-gradient-23);}.cls-62{fill:#2faac8;}.cls-63{fill:#38251b;}.cls-64{fill:#422d22;}.cls-65{fill:#ea9f6f;}.cls-66{fill:#aa6f48;}.cls-67{fill:url(#linear-gradient-24);}.cls-68{fill:url(#linear-gradient-25);}.cls-69{fill:#1a68af;}.cls-70{fill:#298ae5;}.cls-71{fill:#237cce;}.cls-72{fill:#12549d;}.cls-73{fill:url(#linear-gradient-26);}.cls-74{fill:url(#linear-gradient-27);}.cls-75,.cls-76{opacity:0.7;}.cls-76{fill:url(#linear-gradient-28);}.cls-77{fill:url(#linear-gradient-29);}.cls-78{fill:#1863a8;}.cls-79{fill:#2989e3;}.cls-80{fill:#14548e;}.cls-81{fill:url(#linear-gradient-30);}.cls-82{fill:#269cba;}.cls-84{fill:#fbddc4;}.cls-85{fill:#1989a5;}.cls-86{fill:#f6c8a2;}</style><linearGradient id="linear-gradient" x1="2406.23" y1="1344.52" x2="2262.86" y2="1369.68" gradientUnits="userSpaceOnUse"><stop offset="0" stop-color="#105b91"/><stop offset="1" stop-color="#0a3c5f"/></linearGradient><linearGradient id="linear-gradient-2" x1="2205.05" y1="845.61" x2="2282.58" y2="1207.2" gradientUnits="userSpaceOnUse"><stop offset="0" stop-color="#31adcc"/><stop offset="1" stop-color="#198aa6"/></linearGradient><linearGradient id="linear-gradient-3" x1="2297.9" y1="1035.67" x2="2252.69" y2="1217.5" xlink:href="#linear-gradient-2"/><linearGradient id="linear-gradient-4" x1="2163.53" y1="769.85" x2="2281.7" y2="1218.7" xlink:href="#linear-gradient-2"/><linearGradient id="linear-gradient-5" x1="2420.7" y1="645.13" x2="2335.51" y2="1161.05" xlink:href="#linear-gradient-2"/><linearGradient id="linear-gradient-6" x1="2383.3" y1="698.79" x2="2330.86" y2="1177.6" xlink:href="#linear-gradient-2"/><linearGradient id="linear-gradient-7" x1="2251.66" y1="918.96" x2="1441.9" y2="970.58" xlink:href="#linear-gradient"/><linearGradient id="linear-gradient-8" x1="1620.45" y1="656.17" x2="1527.05" y2="1332.38" xlink:href="#linear-gradient-2"/><linearGradient id="linear-gradient-9" x1="1424.91" y1="485.6" x2="1355.82" y2="595.5" gradientUnits="userSpaceOnUse"><stop offset="0" stop-color="#2981e6"/><stop offset="1" stop-color="#1761a6"/></linearGradient><linearGradient id="linear-gradient-10" x1="1147.76" y1="381.03" x2="1126.27" y2="424.75" gradientUnits="userSpaceOnUse"><stop offset="0" stop-color="#632e40"/><stop offset="1" stop-color="#48202d"/></linearGradient><linearGradient id="linear-gradient-11" x1="1141.49" y1="429.02" x2="1137.34" y2="458.61" xlink:href="#linear-gradient-9"/><linearGradient id="linear-gradient-12" x1="1156.86" y1="451.22" x2="1172.59" y2="456.63" xlink:href="#linear-gradient-9"/><linearGradient id="linear-gradient-13" x1="1945.67" y1="1539.46" x2="1931.21" y2="1648.55" xlink:href="#linear-gradient-2"/><linearGradient id="linear-gradient-14" x1="1833.76" y1="754.39" x2="1812.26" y2="798.11" xlink:href="#linear-gradient-10"/><linearGradient id="linear-gradient-15" x1="1827.49" y1="802.38" x2="1823.34" y2="831.97" xlink:href="#linear-gradient-9"/><linearGradient id="linear-gradient-16" x1="1842.85" y1="824.59" x2="1858.59" y2="830" xlink:href="#linear-gradient-9"/><linearGradient id="linear-gradient-17" x1="1064.4" y1="729.32" x2="939.03" y2="708.15" xlink:href="#linear-gradient-2"/><linearGradient id="linear-gradient-18" x1="1001.69" y1="918.41" x2="861.81" y2="1031.57" xlink:href="#linear-gradient"/><linearGradient id="linear-gradient-19" x1="922.31" y1="1015.94" x2="810.18" y2="1047.03" xlink:href="#linear-gradient"/><linearGradient id="linear-gradient-20" x1="881.85" y1="354.17" x2="915.69" y2="739.29" xlink:href="#linear-gradient-2"/><linearGradient id="linear-gradient-21" x1="867.63" y1="556.35" x2="948.1" y2="1008.15" gradientUnits="userSpaceOnUse"><stop offset="0" stop-color="#d2eefc"/><stop offset="1" stop-color="#c3e6f7"/></linearGradient><linearGradient id="linear-gradient-22" x1="940.89" y1="579.98" x2="831.46" y2="727.2" xlink:href="#linear-gradient-21"/><linearGradient id="linear-gradient-23" x1="944.37" y1="516.94" x2="926.69" y2="733.43" xlink:href="#linear-gradient"/><linearGradient id="linear-gradient-24" x1="998.88" y1="552" x2="1037.54" y2="665.89" xlink:href="#linear-gradient-21"/><linearGradient id="linear-gradient-25" x1="994.65" y1="549.54" x2="1027.96" y2="671.17" xlink:href="#linear-gradient-21"/><linearGradient id="linear-gradient-26" x1="806.53" y1="574.77" x2="866.1" y2="740.37" xlink:href="#linear-gradient-21"/><linearGradient id="linear-gradient-27" x1="1974" y1="252.02" x2="2081.55" y2="679.51" xlink:href="#linear-gradient-21"/><linearGradient id="linear-gradient-28" x1="2134.26" y1="338.28" x2="2088.11" y2="368.38" xlink:href="#linear-gradient-21"/><linearGradient id="linear-gradient-29" x1="2096.03" y1="264.34" x2="2136.93" y2="414.27" xlink:href="#linear-gradient-21"/><linearGradient id="linear-gradient-30" x1="1240.12" y1="1362.74" x2="1070.35" y2="1673.98" xlink:href="#linear-gradient-9"/></defs><title>19 [Converted]</title><g class="cls-1"><g id="Layer_1" data-name="Layer 1"><path class="cls-2" d="M1703,354.64c-3.8,5.38-10.57,6.7-19.49,4.45-2.1-6.55-6.73-13-12.26-16.2-6.39-3.69-11.72-1.78-13.09,4.36-2-1.42-4.05-2.69-6.2-4.15-3.16-2.28-6.36-4.55-9.77-7.19,4.41-12.38,7.74-27.49,9.73-44.83,12.9-3.69,24.15-8.9,33.28-15.41,2.13,4.14,4.16,8.31,6,12.38,14.34,31.33,19.41,56,11.81,66.59Zm-109.46-176c-19.08-11-34.61-2.16-34.67,19.76s15.36,48.72,34.44,59.73,34.58,2.15,34.64-19.84-15.37-48.65-34.41-59.65Zm43.93,153.56a197.25,197.25,0,0,0,9-39.68,142.21,142.21,0,0,1-23,3.66,166.28,166.28,0,0,1-24.22.48,422.93,422.93,0,0,0,38.18,35.54Zm-5.36,12.6c-10.24,20-24.11,28-39.1,19.4s-28.8-32.65-38.89-64.42c-1.25-4.08-2.5-8.24-3.62-12.56a179.6,179.6,0,0,0,42.7,9,432.43,432.43,0,0,0,42.59,40.28c-1.15,3-2.41,5.72-3.68,8.34ZM1548.86,281a383.14,383.14,0,0,1-8.87-50c7.23,10.07,14.86,20.17,23,30.31s16.12,19.46,24.13,28.29a181,181,0,0,1-38.25-8.58Zm-14.51-5.83c3.17,1.37,6.37,2.79,9.68,4a400.07,400.07,0,0,1-9.34-55.84,538.88,538.88,0,0,1-33.08-53.71,53.8,53.8,0,0,0-6,5.41c-14.47,14.7-19.66,33.41-12.24,52.72,6.26,16.19,20.57,30.48,39.47,41.4q5.54,3.19,11.56,6Zm-.41-59.82a501,501,0,0,1-29.16-48.22,100.64,100.64,0,0,1,29.33-14.35c-.82,9.63-1.31,19.81-1.34,30.51s.4,21.48,1.17,32.06Zm-38.3-66.65c1.83,4.06,3.85,8.13,6,12.37,9.12-6.54,20.27-11.77,33.27-15.4,2-17.35,5.32-32.46,9.63-44.89-3.31-2.59-6.51-4.89-9.67-7.14l-3.32-2.27c-.39,7.91-6.22,11.12-13.46,6.94-6.61-3.82-12-12.37-13.15-20.29-9.77-2.85-17.13-1.65-21.2,4-7.51,10.59-2.44,35.33,11.9,66.66Zm53.72-44.15a412.39,412.39,0,0,1,38.17,35.51,176.6,176.6,0,0,0-24.3.46,164,164,0,0,0-23,3.63c2.08-15.17,5.13-28.54,9.13-39.6Zm5.36-12.6c-1.27,2.62-2.54,5.32-3.69,8.33a425.92,425.92,0,0,1,42.63,40.31,175.89,175.89,0,0,1,42.67,8.94c-1.12-4.32-2.37-8.47-3.62-12.55-10.1-31.78-23.87-55.75-38.86-64.41S1565,71.94,1554.72,92ZM1638,155.75a383,383,0,0,1,8.78,49.93q-10.71-15-22.9-30.23c-8.09-10-16.13-19.45-24.13-28.32a175.79,175.79,0,0,1,38.25,8.62Zm11.27,94.82c0-12.36-.52-24.7-1.65-36.81-8.09-11.6-16.8-23.3-26.15-34.82s-18.64-22.46-27.81-32.32a173.77,173.77,0,0,0-27.94,0,139.16,139.16,0,0,0-26.25,4.67,322.55,322.55,0,0,0-1.86,34.78c0,12.46.52,24.8,1.65,36.91,8,11.51,16.79,23.17,26,34.77s18.74,22.48,27.94,32.35a164.69,164.69,0,0,0,27.91-.11,152.72,152.72,0,0,0,26.26-4.57,328.36,328.36,0,0,0,1.85-34.88Zm3.56-29.24c.86,10.61,1.29,21.32,1.26,32s-.52,21-1.44,30.56a99.18,99.18,0,0,0,29.42-14.41,513.4,513.4,0,0,0-29.24-48.17Zm-.33-59.76c-3.16-1.4-6.36-2.78-9.77-4.08a387.45,387.45,0,0,1,9.44,55.9,546.21,546.21,0,0,1,33.08,53.71,64.43,64.43,0,0,0,6-5.42c14.47-14.7,19.66-33.41,12.15-52.77-6.18-16.14-20.47-30.43-39.37-41.34-3.69-2.13-7.55-4.14-11.57-6Zm35.93,111.61a51.88,51.88,0,0,0,6.72-6.06c15.65-15.78,21-36.61,12.57-58.53-7.2-18.51-22.93-34.59-43.55-46.5-3.87-2.23-7.92-4.32-12.11-6.25-3.51-1.67-7.16-3.22-10.85-4.57-1.34-4.8-2.68-9.46-4.11-14.07C1626.22,103,1611,76.91,1593.86,67s-32.48-1.5-43.5,20.1c-1.45,2.94-2.9,6-4.18,9.29-3.68-2.9-7.33-5.58-10.83-8-1.45-1-3-2-4.33-2.93-1.83-7.31-6.86-14.66-12.84-18.12-6.61-3.82-12-1.57-13.21,5-11.63-3.7-20.43-2.42-25.4,4.5-8.56,12.11-3.31,39.07,12.19,72.84,2,4.52,4.25,9.13,6.67,13.78a63.94,63.94,0,0,0-6.73,6.12c-15.64,15.83-21,36.65-12.56,58.58,7.19,18.47,22.88,34.54,43.46,46.42q5.85,3.38,12.2,6.29c3.5,1.71,7.16,3.14,10.85,4.6,1.25,4.72,2.68,9.47,4.11,14,10.86,34.2,26.11,60.4,43.25,70.29s32.45,1.35,43.46-20.22c1.46-2.84,2.82-6,4.18-9.19,3.69,2.8,7.34,5.58,10.84,7.92,2.12,1.58,4.24,2.91,6.39,4.25.84,8.16,6.44,17.3,13.29,21.26,7.47,4.3,13.48.77,13.51-8.58,10.17,2.55,18,1,22.59-5.3,8.56-12.1,3.31-39.06-12.19-72.87C1693.06,282.54,1690.83,277.89,1688.41,273.18Z" transform="translate(-320 -62.9)"/><circle class="cls-3" cx="2484.32" cy="1769.29" r="78.7" transform="translate(-843.44 2211.99) rotate(-45)"/><path class="cls-4" d="M378.27,1380.31A58.27,58.27,0,1,1,320,1438.58,58.26,58.26,0,0,1,378.27,1380.31Z" transform="translate(-320 -62.9)"/><path class="cls-4" d="M2644,585.09a36,36,0,1,1-36,36A36,36,0,0,1,2644,585.09Z" transform="translate(-320 -62.9)"/><circle class="cls-5" cx="2322.38" cy="242.1" r="50.58" transform="translate(1325.62 2413.93) rotate(-79.1)"/><path class="cls-6" d="M572.18,927.69a32.24,32.24,0,1,1-32.25,32.24A32.24,32.24,0,0,1,572.18,927.69Z" transform="translate(-320 -62.9)"/><path class="cls-7" d="M617.16,1759.88a32.24,32.24,0,1,1-32.24,32.24A32.25,32.25,0,0,1,617.16,1759.88Z" transform="translate(-320 -62.9)"/><ellipse class="cls-8" cx="2015.2" cy="1413.15" rx="121.7" ry="70.49"/><path class="cls-9" d="M2193.25,1244.51c6-.09,257.67-.84,280.74-.77,0,5.2-.78,10.74-1.25,15.92a503,503,0,0,1-10.73,69.15c-.05.17-.09.35-.13.52-10.49,44.57-28.87,87.08-58.34,122.41-7.62,9.27-23.25,26.55-33.56,32.71-19.15,11.45-50.67,11.76-70.38.7a40.07,40.07,0,0,1-6.77-4.69,256.69,256.69,0,0,1-39.81-43.75c-23.48-32.8-38.93-70.89-47.89-110.08C2198.7,1299.42,2195.76,1272.23,2193.25,1244.51Z" transform="translate(-320 -62.9)"/><ellipse class="cls-10" cx="2013.66" cy="1178.04" rx="134.64" ry="75.96"/><path class="cls-11" d="M2333.66,1185.74c-72.17,0-130.68,33-130.68,73.72,0,19.88,47.31,54.82,131.06,58.68s127.59-41.12,130.3-58.68C2464.34,1218.75,2405.83,1185.74,2333.66,1185.74Z" transform="translate(-320 -62.9)"/><path class="cls-12" d="M2333.66,1161.54c-77.58,0-140.47,36.43-140.47,81.37s62.89,81.37,140.47,81.37,140.47-36.43,140.47-81.37-62.89-81.37-140.47-81.37Zm0,5.68c72.17,0,130.68,33,130.68,73.72s-58.51,73.72-130.68,73.72-130.68-33-130.68-73.72S2261.49,1167.22,2333.66,1167.22Z" transform="translate(-320 -62.9)"/><path class="cls-12" d="M2196.13,1259.53c13.24,37,69.78,64.75,137.53,64.75,66,0,121.42-26.4,136.45-62l.11-.26-2.54-.24-7.73-1.37-.27,0c-15.18,31.23-65.85,54.17-126,54.17-61.53,0-113.11-24-127-56.29l-7.35.34-3.18.82Zm274.5,1.51-2.37-1.1,2.47.84Z" transform="translate(-320 -62.9)"/><path class="cls-13" d="M2172.33,656.76c-20.29,23.81-36.6,47-49.31,69.52,4.18,7.46,7.87,15.11,12.1,22.67-8.07-3.54-14-6.15-19.87-8.09C2079.57,812,2080,876.58,2104.65,934c19.34,8.29,24.45,9.44,48.62,12.08q-17.55,7.36-35.08,14.77c30.79,52.4,85.59,79.34,68.88,162.7-.65,3.24-1.28,6.5-1.84,9.8q21.45,13.89,43,27.73c-22.43-1.48-31.06-1.62-45.38,1.12,1.25,38.79,25,79.64,129.33,117.27,10.17-.81,35.29-13.06,40.55-20.29-4.62-36.14,6.25-99.43,15.53-149.15,7.56-40.46,5-68.83-4-90.63-13,6.43-26.36,11.06-39.68,16.9,10.74-19.16,16-28.46,20.18-47.19C2312,953.19,2257.52,934.74,2220,875q-3.39-5.4-6.93-11.36c-7.33,3.15-14.77,5.91-22.18,9.16,6.06-10.82,9.86-17.57,12.73-26.08C2179.15,800.42,2156.65,735,2172.33,656.76Z" transform="translate(-320 -62.9)"/><path class="cls-14" d="M2182.87,1054.4c7.25,18.62,9.93,40.58,4.2,69.17-.65,3.24-1.28,6.5-1.84,9.8q21.45,13.89,43,27.73c-22.43-1.48-31.06-1.62-45.38,1.12,1.25,38.79,25,79.64,129.33,117.27,10.17-.81,35.29-13,40.55-20.29-4.62-36.14,6.25-99.43,15.53-149.15,7.56-40.46,5-68.83-4-90.63-13,6.43-26.36,11.06-39.67,16.9,10.73-19.16,16-28.46,20.17-47.19-20.65-22.67-50-38.39-78.22-61.91C2251.94,975.75,2209.74,1005.72,2182.87,1054.4Z" transform="translate(-320 -62.9)"/><path class="cls-15" d="M2159.94,921.47c-16.64-6.84-40.55-24.58-54.87-41.66,17,10.83,31.19,22,47.24,27.76a173.66,173.66,0,0,1-7.88-18.38c-21-58.14-7.78-109.66,8.62-165.31-10.87,44.23-20.28,86.29-11.56,130,4.15-13.64,12.6-23.94,23.7-40.24-8.54,19.85-17.86,37.13-19.2,57.87q2.31,7.41,5.41,14.91c10.57,25.46,26.47,45.66,43.8,64.19-1.78-17.78,3.47-32.73,11.11-53.29-3.18,19.23-6.49,42.62-2.11,62.67,24.07,24.55,49.53,47.11,66.49,76.65,8.81-37.86,6.64-31,15.22-68.42,2.91,41,1.6,56.58-6.85,85.36a145.33,145.33,0,0,1,10.41,41c4.09,38.14,3.83,61.87,6.22,82.44,21.4-43.27,11.55-22.94,40.24-84.42-2.67,35.85-1.52,39.8-35.29,109.58,5.42,18.42,15.64,38.18,36.2,68.21a104.77,104.77,0,0,1-19.74,8.11c-37.52-56-37.61-77.75-38.25-119.8-16.31-28.55-37-60.85-59.27-82.49,20.28,7.7,36.28,19.2,58.45,53.24-.47-10-1.25-21.22-2.6-33.92-3.6-33.94-19.69-59.71-39.81-83.7-39.11-16.13-47.24-16-64.9-20.47,22.48-2.34,36.25-.76,49.77,3.36C2199.62,972,2176.87,949.52,2159.94,921.47Z" transform="translate(-320 -62.9)"/><path class="cls-16" d="M2473,393.56c-38.54,20.56-71.59,42.34-99.62,65.12,1.62,11.83,2.49,23.65,4.12,35.65-8.67-8.74-15-15.14-21.67-20.67C2273.08,547.9,2240.67,632,2243.3,719.22c20.89,20.67,26.95,24.78,57,40.56q-26.57.6-53.13,1.26c13.21,83.84,70.64,146.85,6.3,246.63-2.49,3.87-5,7.8-7.39,11.79q20.77,29,41.64,58c-28.38-13.39-39.54-18-59.54-21.75-18.21,51-8.2,116.29,108.09,218.52,13.64,4.14,52.53,1.07,63.06-5.64,12.49-49.32,59-126,96.45-185.86,30.52-48.71,41.72-86.87,41.19-119.8-20.15,1.72-39.91.9-60.2,1.67,23.74-19.4,35.31-28.8,50.34-51-24.15-63.42-85.54-115.28-103.78-212.1-1.1-5.83-2.18-11.94-3.19-18.31-11.14.35-22.22.13-33.52.57,13.42-11,21.8-17.79,29.88-27.38C2408.41,583.71,2412.65,487.15,2473,393.56Z" transform="translate(-320 -62.9)"/><path class="cls-17" d="M2321.57,731.19c-18.14-17.39-40.14-52.68-50-82.19,16.58,22.77,29.3,44.49,47.19,60.23a242.89,242.89,0,0,1-.84-27.92c2.43-86.28,46-146.46,95.73-210.39-36.74,51.91-70.47,101.76-81.52,163.08,12.36-15.61,28.61-24.67,51.37-40.18-21.25,21.43-42.19,39.11-54.54,65.38-.52,7.21-.73,14.58-.59,22.14.71,38.49,11,72.88,24.09,105.8,6.77-24,21.24-40.75,41.69-63.56-14,23.37-30.23,52.06-34.79,80.36,18.73,44.21,40.27,86.54,47.2,133.59,30.81-44.68,24.48-36.87,54.77-81.12-17.17,54.72-26.86,74.34-52.54,107.42a203.3,203.3,0,0,1-7.44,58.59c-14.19,51.65-26.66,82.36-34.08,110.31,49.93-45.29,26.75-23.9,95.46-89.12-21.8,45.22-22.33,50.94-101.88,124.34-2.37,26.71.79,57.62,12.16,107.14-10.46,1.14-21.67,1.37-29.8.45-20.11-92-9.11-120.27,11.55-175.24-6.59-45.43-17-98-34.83-137.49,22.41,20.38,37.32,43.51,48.73,99.07,4.51-13.29,9.21-28.21,13.95-45.41,12.68-45.94,5-87.65-8.93-129.1-42.57-41-53.23-44.88-73.86-59.79,30.4,8.46,47.49,17.55,63,29.82C2347.26,817.17,2329.22,776.3,2321.57,731.19Z" transform="translate(-320 -62.9)"/><path class="cls-18" d="M2194.64,1823.4,1033.13,1155.61c-9-4.31-21.88-7.86-31.05-3.29-8.35,4.17-22.11,12.77-28.2,16.11-4.62,2.53-20.66,11.8-10.67,17.45C992.6,1202.5,2100.67,1840.1,2130.52,1857c5.64,3.19,13.9,4.48,22.57,4a58.7,58.7,0,0,0,24.44-6.76q7.45-4.15,14.64-8.2c6.48-3.63,9.91-8,10.25-12.13S2200.17,1826,2194.64,1823.4Z" transform="translate(-320 -62.9)"/><path class="cls-19" d="M2111.58,712c46.81,27,83.53,92.23,83.39,144.42l-2,888.43c-.07,26.35-9.4,44.9-24.42,53.63l-21.39,12.86c-88.63-41.64-53.41-435-58.94-565.69l25.11-341.79C2092.22,866.93,2011,834.73,2030,759.39L1244.28,330.17,1007,168.81h0c1-6.08-6.4-36.05.21-40.06,7.38-4.48,14.66-9,21.9-13.2,18.54-11,42.17-4.19,59.52,5.82h0Z" transform="translate(-320 -62.9)"/><path class="cls-20" d="M983,182.31c.15-53.05,37.72-74.52,83.93-47.83L2089.81,725.06c46.16,26.65,83.54,91.38,83.39,144.43l-2,888.42c-.15,53-37.77,74.49-83.94,47.83L1064.36,1215.16c-46.22-26.68-83.54-91.39-83.39-144.43Z" transform="translate(-320 -62.9)"/><path class="cls-21" d="M999.11,203.71c.14-51.61,36.69-72.49,81.64-46.53l995.14,574.53c44.9,25.93,81.26,88.9,81.11,140.51l-1.93,864.29c-.14,51.61-36.74,72.47-81.66,46.53l-995.12-574.53c-45-26-81.27-88.91-81.13-140.51Z" transform="translate(-320 -62.9)"/><path class="cls-20" d="M984.72,163.93c7.92-39.29,41.74-52.8,82.18-29.45L2089.82,725.05c40.38,23.33,74,75.8,81.73,124.09Z" transform="translate(-320 -62.9)"/><path class="cls-22" d="M1116.62,197.47c-6.89-4-12.49-.78-12.51,7.13s5.54,17.56,12.43,21.54,12.49.78,12.51-7.14S1123.51,201.44,1116.62,197.47Z" transform="translate(-320 -62.9)"/><path class="cls-22" d="M1075.41,170.57c-6.9-4-12.49-.78-12.52,7.13s5.54,17.56,12.44,21.54,12.49.79,12.51-7.13S1082.29,174.55,1075.41,170.57Z" transform="translate(-320 -62.9)"/><path class="cls-22" d="M1037.66,148c-6.89-4-12.49-.78-12.51,7.13s5.54,17.57,12.43,21.55,12.5.78,12.52-7.14S1044.55,152,1037.66,148Z" transform="translate(-320 -62.9)"/><path class="cls-23" d="M1708.81,981.11c-.1,35-24.88,49.17-55.37,31.56C1329.63,827,1449.18,897.3,1125.41,711.6c-30.46-17.59-55.12-60.3-55-95.3l1.31-33.67c.1-35,24.93-49.15,55.38-31.56,323.81,185.72,204.27,115.36,528,301.07,30.5,17.61,55.12,60.31,55,95.3Z" transform="translate(-320 -62.9)"/><path class="cls-24" d="M1223,704.82,1661.92,958c3.47,2,6.26.42,6.27-3.57l0-14.18a13.78,13.78,0,0,0-6.22-10.78L1223.1,676.29c-3.46-2-6.26-.35-6.27,3.57l0,14.18A13.66,13.66,0,0,0,1223,704.82Z" transform="translate(-320 -62.9)"/><path class="cls-24" d="M1225.27,659.14l438.9,253.22c3.47,2,6.26.42,6.27-3.58l0-14.17a13.76,13.76,0,0,0-6.23-10.78l-438.9-253.22c-3.46-2-6.26-.35-6.27,3.57l0,14.17A13.66,13.66,0,0,0,1225.27,659.14Z" transform="translate(-320 -62.9)"/><path class="cls-24" d="M1223,750.79l250.53,144.14c3.47,2,6.26.41,6.27-3.58l0-14.18a13.78,13.78,0,0,0-6.22-10.78L1223.1,722.26c-3.46-2-6.26-.35-6.27,3.57l0,14.17A13.66,13.66,0,0,0,1223,750.79Z" transform="translate(-320 -62.9)"/><path class="cls-24" d="M1144.76,711.87c33.8,19.52,61.29,3.84,61.4-35s-27.2-86.14-61-105.67-61.29-3.85-61.4,35S1111,692.35,1144.76,711.87Z" transform="translate(-320 -62.9)"/><path class="cls-25" d="M1158.47,674.16a29.45,29.45,0,0,0,4,16.8c3,5.56,8.08,10.55,15.53,17.36,3.87,3.53,6.78,6.24,9,8.52-11,5.68-25.91,4.48-42.27-5-16.12-9.31-30.76-24.94-41.66-43a88.17,88.17,0,0,1,9.5,1.9c7.53,1.77,12.62,2.59,15.68.51,2.34-1.58,3.94-4.59,3.9-11.27,0-.51,0-1,0-1.57,6.42,4.65,9.76,7.21,13.12,9.27A93.24,93.24,0,0,0,1158.47,674.16Z" transform="translate(-320 -62.9)"/><path class="cls-23" d="M1163.14,692.09c3.1,5.13,7.94,9.89,14.88,16.23,3.87,3.53,6.78,6.24,9,8.52-11,5.68-25.91,4.48-42.27-5-16.12-9.31-30.76-24.93-41.66-43a88.17,88.17,0,0,1,9.5,1.9c6.46,1.52,11.1,2.33,14.25,1.23,2.11,8.51,10.65,17,18.93,21.54S1162,698.91,1163.14,692.09Z" transform="translate(-320 -62.9)"/><path class="cls-26" d="M1166.47,696.67c-3.27,8.21-12.23,7.18-21.18,1.63s-17.89-15.71-21.11-25.76l3.59-1c1.43,4.86,8.71,13.29,16.32,18.67s15.55,7.73,18.36.53Z" transform="translate(-320 -62.9)"/><path class="cls-27" d="M1163.33,651.11c.11-.19.21-.38.32-.54,1.14-1.73,2.55-1.5,3.34-.26,2.59,4.13,0,7.63-1,9.79-.52,2.34,0,5-2.14,4.69-1-.16-1.63-1.35-2.56-4.36.15-3.14.28-6.29.42-9.45Z" transform="translate(-320 -62.9)"/><path class="cls-27" d="M1127.67,630.53c-.1-.3-.2-.61-.31-.9-1.15-3-2.57-4.47-3.37-4.13-2.62,1.12,0,7.66.92,10.9.51,2.94,0,5.08,2.14,7.17,1,1,1.63.53,2.57-1.41q-.18-4.95-.38-9.93Z" transform="translate(-320 -62.9)"/><path class="cls-27" d="M1139,669.55c-1.07-1.54-2-3.25-3.38-5.58-1.81-3-4.76-6.59-5.72-9.52-1.13-3.44-1-6.91-1.13-10.5-.12-2.52-1.08-5.41-1.54-8.81a62.34,62.34,0,0,1-.42-6.73c0-1.9,0-3.84.07-5.66.66-12.76,3.2-23.87,17-16.07h0l.65.38.72.43.37.23.38.21.71.39.65.38h0c13.76,8.15,16.24,22.15,16.84,35.59.08,1.92.1,3.87.06,5.73a48,48,0,0,1-.45,6.19c-.47,2.86-1.45,4.63-1.58,7-.18,3.4,0,7-1.16,9.16-1,1.82-3.91,2.06-5.72,2.94a24.25,24.25,0,0,1-3.4,1.67,4.82,4.82,0,0,1-2.5,0,31.3,31.3,0,0,1-7.93-4.55A18.07,18.07,0,0,1,1139,669.55Z" transform="translate(-320 -62.9)"/><path class="cls-23" d="M1146.93,621.59c4.56,3.82,4.73,2.44,7,3.89,1.39.87,2.1,2.52,4.44,3.51.82,6.68.75,7.2,4.33,14,0,1.46,0,2.9.09,4.34q.09,3.4.12,5.95c0,4.07-.87,7.41-.56,10.79,1-4.07,2-6.22,2.37-10.92a16.74,16.74,0,0,1,.07-3,13.88,13.88,0,0,0-.11-6.3c.1-1.16,1-.65,1.19-1.4s-.39-1.9-.37-2.73.63-1.27.49-2.18c-.18-1.2-.37-2.41-.55-3.62a31.34,31.34,0,0,0,2.91-3.51q-.52-.65-1-1.32c1.38-4-.91-4.84-.9-6.49,0-1.16.89-.64,1.3,0a14.5,14.5,0,0,1,1.28,3.53c.76-6.51-3.85-10.45-8.47-14.89A15.67,15.67,0,0,0,1148,599.45c-4.54-7.8-10.5-8.46-14.84-6.52-4.2-.63-6.93-1.35-8,7a32.73,32.73,0,0,1,.18-6.45,16.5,16.5,0,0,0-.78,6.91,22.77,22.77,0,0,1-2.73-4.84,25.72,25.72,0,0,0,1.29,7l-1.3-1.49a24.62,24.62,0,0,0,1.11,5.33l-2-2c.69,4.87,1,6.49,3.25,10.31a62,62,0,0,0,.62,7.6c.4,2.08.68,3.39,1.09,4.9s.81,2.81,1,3.88a25.32,25.32,0,0,1,.5,2.74c.13,6.23-.48,5.56,1.91,12.39-.13-5.75-1.29-5.65-1.12-12.5a69.29,69.29,0,0,1-.17-7.95c.16-1.66,1.11-1.47,1.13-3.36.07-6.26-1.95-11.29,2-9.26,4.34,2.26,5.72,5.53,9,3.35C1143.86,620.59,1144.81,620.94,1146.93,621.59Z" transform="translate(-320 -62.9)"/><path class="cls-23" d="M1139.26,602.74c-.9-6.3.12-8.67,2.22-8.69,1.59,0,3.64,1.05,7.21,4.5a5.15,5.15,0,0,0-2.55.8c.08-.41.16-.81.23-1.22-4.29,3.57-3.93,7.87-5.5,14.37-.43,1.76-.65,2,.4,2.16.27,0,.51.67.83,1.12.59.85,1.17,1.65,2.57.45A16.44,16.44,0,0,0,1149,609c1-3.39,1.39-6.54,3.93-6.15s5.41,2.72,7.4,6c-2.43-7-7.63-10.55-11.6-10.35-2.51-3.84-4.76-6.09-6.67-7-5.28-2.5-7.61,4.19-6.34,12.38.28,1.78.79,3.65,1.43,6.76.21,1,.43,2.27.66,3.61a2,2,0,0,0,2.1-1.6c.78-2.62-.35-8.12-.61-10ZM1158.89,628c5,2.78,6.7-2.59,6.95-7.41,0,2.06,3.27,5.29-.87,8.15,1.58-1.2,1.68-.82,2.9-.22-2.2,1.16-1.47,3.64-4.45,2.85,2,1.84,2.65,3,2.09,5.87-.56-2.66-1.91-2.94-3.55-5,2.29,3,4.57,6.63,2.69,8.8.33-3.43-2.41-3.82-4.27-8.84.62,3.25,3.41,7,4.09,10.49-4.37-5.87-5.12-8.54-5.58-14.66Zm9.94-6.25c-3.78-7.22-3.81,2.75-6.93,5.18-1.51,1.18-3.91.69-8.23-4.17-3.4-1.14-3.77-.85-7.07-3.79,3.77,1.28,8.34-4.71,12-4.62-.44.53-.88,1-1.34,1.54,1.91-.87,4.79-1.43,7.17-.07a9.29,9.29,0,0,1,4.43,5.93Zm-25.42-4.39c4.78-.4,6-8.37,10.94-9.72,2.07-.57,4.66.29,9,4.66-6.14-3.93-8.36-3.21-12.61,1.51,5-4.34,11.37-4.25,17.51,5.08-4.17-5.4-8.54-6.66-11.74-5.37-5,2-7,6.83-13.06,3.84Zm-21-17.24a26.07,26.07,0,0,0,3.88,9.15,23.3,23.3,0,0,1-4.7-5.44,16.15,16.15,0,0,0,4.24,7,5.76,5.76,0,0,1-3.14-2.42,6.52,6.52,0,0,0,2.75,3.79,6.57,6.57,0,0,0-.58,3c1.51-3.37,3.26-2.75,4-5-2.39-.52-5-6.54-6.49-10.06Zm8.2-9.22c-4.86,3.35-4.33,13.72,0,19.45-5.71-1.64-6.89-9.4-8.3-14.79,1.73,2.9,2.43,5.45,3.63,8.2-1.13-6.24.6-13,4.66-12.86Zm6.08,22c.1,1.34-.93.35-1.51-.12-.73.71-1.84-.41-3-2.15-3-1.89-4.06-5.9-4.25-11.73-.12-3.46.72-6.38,4-7.89,0,.29.11.59.17.87.33-.13.65-.27,1-.43l.48,1.56c1.83-3.28,3-3.12,6.35-2.48-3.42-.08-4.91,3-5.25,6.68C1134.32,601.6,1136.28,607.72,1136.7,612.89Z" transform="translate(-320 -62.9)"/><path class="cls-28" d="M1708.81,1202.13c-.1,35-24.88,49.17-55.37,31.56-323.81-185.72-204.26-115.37-528-301.07-30.46-17.59-55.12-60.3-55-95.3l1.31-33.67c.1-35,24.93-49.14,55.38-31.56,323.81,185.72,204.27,115.36,528,301.07,30.5,17.61,55.12,60.31,55,95.3Z" transform="translate(-320 -62.9)"/><path class="cls-29" d="M1144.76,932.89c33.8,19.52,61.29,3.84,61.4-35s-27.2-86.15-61-105.67-61.29-3.85-61.4,35S1111,913.37,1144.76,932.89Z" transform="translate(-320 -62.9)"/><path class="cls-30" d="M1708.81,740c-.1,35-24.88,49.16-55.37,31.56-323.81-185.72-204.26-115.37-528-301.07-30.46-17.59-55.12-60.31-55-95.31l1.31-33.66c.1-35,24.93-49.15,55.38-31.56,323.81,185.72,204.27,115.35,528,301.07,30.5,17.6,55.12,60.3,55,95.3Z" transform="translate(-320 -62.9)"/><path class="cls-31" d="M1144.76,470.72c33.8,19.52,61.29,3.84,61.4-35s-27.2-86.15-61-105.67-61.29-3.85-61.4,35S1111,451.2,1144.76,470.72Z" transform="translate(-320 -62.9)"/><path class="cls-32" d="M1135.73,358.71c-.88,0-1.79.09-2.74.2-17.13-.66-20.23,17-21.36,27.6-1.69,15.84.6,24.14-3.12,31.14a37.66,37.66,0,0,0-4.13,12.2,143.76,143.76,0,0,0,11.69,16.09c3.16-11.74,15.22-22.53,15.23-31.65.88-2.94,3.4-5.51,6.24-7.24l3.67,4c1.61,4.2,2.07,6.63,3.53,9.63,3.33,6.8,3.48,15.1,9.63,11.11,30.7-20.17,23-77.92-18.11-73.14Z" transform="translate(-320 -62.9)"/><path class="cls-33" d="M1157.49,473a24.33,24.33,0,0,0-1.3,3.08,69.93,69.93,0,0,1-11.43-5.37c-13.69-7.9-26.31-20.37-36.48-35a17.65,17.65,0,0,1,2.72-6.08,60,60,0,0,0,6.08-10.74,47.75,47.75,0,0,1,1.36-6.15,10.19,10.19,0,0,1,1.63-3.36c2.24-3.19,6.24-4.81,13.22-1.88,6.26,2.63,14.54,6.15,21.81,10.65,3.16,2,13.15,9.41,15.31,12.43a10.84,10.84,0,0,1,1.94,5.68C1173.11,447.29,1162.29,463.49,1157.49,473Z" transform="translate(-320 -62.9)"/><path class="cls-34" d="M1146.77,397c-1.14,6.48.7,14.26,1,20.06-5.31,4.92-14.3,1.68-16.49-2.77.46-2.88,1-5.53,1.31-8.49Z" transform="translate(-320 -62.9)"/><path class="cls-35" d="M1173.88,437.82c1.3,8.14-.45,25.57-2.72,41.28a50,50,0,0,1-17.36-3.92c-.45-10-.75-20.72-.08-25.6,1.26-9.19,5.75-19.47,12.36-19.71C1170.9,429.69,1173.14,433.2,1173.88,437.82Z" transform="translate(-320 -62.9)"/><path class="cls-36" d="M1124.85,369.62a21.06,21.06,0,0,0-3.44,14.4,6.17,6.17,0,0,1-.5,3.44c-2.47,5.58-2.25,7.31-1,11.78s1.11,6.63,2.59,8.13,3.8,1.88,5.74,2c4,.25,10.76-2.36,14.71-4.52,2.93-1.6,2.82-2.7,4-5.47,4.14-3.6,1.46-6.23.08-6.5-4-.77-4.62,3.81-7,4.82C1140.48,389.66,1125.15,376.08,1124.85,369.62Z" transform="translate(-320 -62.9)"/><path class="cls-37" d="M1223,463.67l438.9,253.22c3.47,2,6.26.41,6.27-3.58l0-14.17a13.76,13.76,0,0,0-6.22-10.78L1223.1,435.14c-3.46-2-6.26-.35-6.27,3.57l0,14.17A13.67,13.67,0,0,0,1223,463.67Z" transform="translate(-320 -62.9)"/><path class="cls-37" d="M1225.27,418l438.9,253.21c3.47,2,6.26.42,6.27-3.57l0-14.17a13.73,13.73,0,0,0-6.23-10.78l-438.9-253.22c-3.46-2-6.26-.35-6.27,3.57l0,14.17A13.67,13.67,0,0,0,1225.27,418Z" transform="translate(-320 -62.9)"/><path class="cls-37" d="M1223,509.63l250.53,144.14c3.47,2,6.26.41,6.27-3.58l0-14.17a13.76,13.76,0,0,0-6.22-10.78L1223.1,481.1c-3.46-2-6.26-.35-6.27,3.57l0,14.18A13.64,13.64,0,0,0,1223,509.63Z" transform="translate(-320 -62.9)"/><path class="cls-37" d="M1354,411.58c17.53,9.94,30.58,17.28,43.69,24.65l14.74,8.3-2.9,5.18-14.75-8.3c-12-6.72-23.85-13.42-43.7-24.68l2.92-5.15Zm78.23,44.14,35.08,19.91-2.93,5.16-35.07-19.91,2.92-5.16Zm49.88,28.35,23.57,13.45-2.92,5.15-23.58-13.45,2.93-5.15Zm38.16,21.78,15.7,9-3,5.16-15.7-9,3-5.15Zm57.61,32.95-3,5.16L1665,595.6c18.06,10.43,34.44,28.36,46.31,48.91s19.15,43.59,19.11,64.33l-1.59,41c0,11.72-2.43,21.39-6.65,28.69a31.52,31.52,0,0,1-11.6,11.87,31.88,31.88,0,0,1-16.16,4.07c-8.51,0-18.19-2.86-28.51-8.83C1469.19,672.84,1432.23,652,1395.28,631.26c-36.78-20.69-73.55-41.37-270.6-154.39-18.07-10.43-34.44-28.37-46.3-48.91s-19.16-43.59-19.13-64.33l1.6-41c0-11.7,2.42-21.36,6.63-28.66A30.66,30.66,0,0,1,1095.27,278c8.51,0,18.19,2.85,28.5,8.81,54.4,31.2,96.58,55.37,129.93,74.44,31.84,18.21,56.55,32.31,76.9,43.88l2.92-5.16c-17.72-10.08-42-23.95-76.87-43.88-33.34-19.07-75.53-43.24-129.93-74.44-11.22-6.47-21.91-9.55-31.45-9.58A36.49,36.49,0,0,0,1062.35,291c-4.7,8.15-7.37,18.77-7.42,31.53l-1.6,41.05c-.06,21.81,7.56,46,19.92,67.37s29.5,40.15,48.48,51.12c196.78,112.86,233.7,133.63,270.65,154.42,36.78,20.69,73.59,41.39,270.61,154.39,11.22,6.48,21.92,9.57,31.46,9.59a36.47,36.47,0,0,0,32.9-18.9c4.71-8.15,7.38-18.78,7.43-31.55l1.6-41.05c.06-21.81-7.56-46-19.91-67.4s-29.49-40.1-48.5-51.08Z" transform="translate(-320 -62.9)"/><path class="cls-28" d="M1708.81,1428c-.1,35-24.88,49.17-55.37,31.56-323.81-185.72-204.26-115.37-528-301.07-30.46-17.59-55.12-60.3-55-95.3l1.31-33.67c.1-35,24.93-49.15,55.38-31.56,323.81,185.72,204.27,115.36,528,301.07,30.5,17.61,55.12,60.31,55,95.3Z" transform="translate(-320 -62.9)"/><path class="cls-29" d="M1144.76,1158.8c33.8,19.52,61.29,3.84,61.4-35s-27.2-86.14-61-105.67-61.29-3.85-61.4,35S1111,1139.28,1144.76,1158.8Z" transform="translate(-320 -62.9)"/><path class="cls-37" d="M1892.54,704.26l27.4,15.91-3,5.14-27.41-15.92,3-5.13ZM1932,727.14l18.52,10.76-3,5.14L1929,732.28l3-5.14Zm29.43,17.1,14.35,8.33-3,5.14-14.35-8.33,3-5.14Zm22.53,13.08L1994,763.2l-3,5.14-10.14-5.88,3-5.14Zm17.64,10.24,8.29,4.82-3,5.14-8.29-4.82,3-5.14Zm42.61,24.75-3,5.14,25.26,14.67c20.44,11.8,39,32.09,52.39,55.33s21.69,49.38,21.62,72.86l-1.8,770.34c0,13.28-2.75,24.24-7.53,32.54a35,35,0,0,1-31.68,18.18c-9.68,0-20.66-3.24-32.33-10l-236.87-137.56c-20.46-11.81-39-32.1-52.4-55.33s-21.69-49.38-21.62-72.87L1758,715.29c0-13.29,2.74-24.26,7.54-32.55a36,36,0,0,1,13.23-13.54,36.38,36.38,0,0,1,18.41-4.63c9.67,0,20.66,3.24,32.35,10l3-5.14c-12.62-7.28-24.63-10.75-35.33-10.78a40.79,40.79,0,0,0-36.78,21.12c-5.29,9.17-8.29,21.14-8.33,35.53l-1.81,770.34c-.07,24.54,8.5,51.73,22.41,75.84s33.19,45.16,54.56,57.5l236.89,137.56c12.6,7.27,24.59,10.74,35.29,10.77a40.81,40.81,0,0,0,36.82-21.15c5.29-9.16,8.28-21.12,8.32-35.5l1.8-770.34c.07-24.53-8.51-51.72-22.42-75.81s-33.2-45.19-54.55-57.52l-25.26-14.67ZM1840.6,674.09l40.18,23.34-3,5.14-40.18-23.34Z" transform="translate(-320 -62.9)"/><path class="cls-38" d="M1762.66,725.72c.12-44.75,31.81-62.86,70.79-40.35l220.69,128.16c38.94,22.49,70.46,77.09,70.33,121.84l-1.67,749.38c-.13,44.74-31.86,62.83-70.8,40.34l-220.69-128.16c-39-22.51-70.46-77.09-70.34-121.83Z" transform="translate(-320 -62.9)"/><path class="cls-39" d="M1772.65,904.16c.12-42.47,30.2-59.66,67.2-38.29l209.47,121.65c37,21.34,66.88,73.16,66.76,115.63l-1.59,99.24c-.12,42.47-30.24,59.63-67.21,38.29L1837.82,1119c-37-21.36-66.89-73.17-66.77-115.63Z" transform="translate(-320 -62.9)"/><path class="cls-40" d="M1803.07,916.18l181.38,105.34c3.47,2,6.26.41,6.26-3.58l0-14.17a13.8,13.8,0,0,0-6.23-10.78L1803.15,887.65c-3.46-2-6.25-.35-6.27,3.57l0,14.17A13.62,13.62,0,0,0,1803.07,916.18Z" transform="translate(-320 -62.9)"/><path class="cls-40" d="M2017.3,1040.44l66.67,38.42c3.47,2,6.26.42,6.27-3.57l0-14.18a13.76,13.76,0,0,0-6.23-10.78l-66.66-38.42c-3.46-2-6.26-.35-6.28,3.57l0,14.17A13.65,13.65,0,0,0,2017.3,1040.44Z" transform="translate(-320 -62.9)"/><path class="cls-40" d="M1803.07,962.85,2021,1090.12c3.47,2,6.25.41,6.26-3.58l0-14.17a13.8,13.8,0,0,0-6.23-10.78L1803.15,934.32c-3.46-2-6.25-.35-6.27,3.57l0,14.17A13.62,13.62,0,0,0,1803.07,962.85Z" transform="translate(-320 -62.9)"/><path class="cls-40" d="M2052.16,1107.35l31.81,18.18c3.47,2,6.26.42,6.27-3.57l0-14.18a13.76,13.76,0,0,0-6.23-10.78l-31.8-18.18c-3.46-2-6.26-.35-6.28,3.57l0,14.18A13.67,13.67,0,0,0,2052.16,1107.35Z" transform="translate(-320 -62.9)"/><path class="cls-40" d="M1803.07,1009.52l199.93,116c3.47,2,6.26.42,6.27-3.57l0-14.17a13.78,13.78,0,0,0-6.22-10.79L1803.15,981c-3.46-2-6.25-.35-6.27,3.57l0,14.17A13.62,13.62,0,0,0,1803.07,1009.52Z" transform="translate(-320 -62.9)"/><path class="cls-40" d="M2031.92,1142.22l52,30c3.47,2,6.26.41,6.27-3.58l0-14.17a13.73,13.73,0,0,0-6.23-10.78l-52-30c-3.46-2-6.26-.35-6.27,3.56l0,14.18A13.66,13.66,0,0,0,2031.92,1142.22Z" transform="translate(-320 -62.9)"/><path class="cls-40" d="M1803.07,1056.19l210.62,122.21c3.47,2,6.25.41,6.26-3.58l0-14.17a13.82,13.82,0,0,0-6.23-10.78l-210.62-122.21c-3.46-2-6.25-.35-6.27,3.57l0,14.17A13.62,13.62,0,0,0,1803.07,1056.19Z" transform="translate(-320 -62.9)"/><path class="cls-40" d="M2041.48,1194l42.49,24.93c3.47,2,6.26.41,6.27-3.58l0-14.17a13.73,13.73,0,0,0-6.23-10.78l-42.48-24.93c-3.47-2-6.26-.35-6.28,3.57l0,14.17A13.62,13.62,0,0,0,2041.48,1194Z" transform="translate(-320 -62.9)"/><path class="cls-41" d="M1940.08,1426.84l-81.37-44.68-82.8-45.48q.35-55.68.68-111.13t.67-110.44l82.32,47.09q40.67,23.27,80.9,46.26-.09,54.33-.19,108.86T1940.08,1426.84Z" transform="translate(-320 -62.9)"/><path class="cls-42" d="M1843.84,1309c5.19,23,11.4,41.92,19.28,52.5,19.3,25.89,47.82,26,54.44-8.51,5.6-29.19,4.87-75.94,4.22-98.34-1.43-49.35-40.94-79.79-70.45-48-26.07-68.64-56.28-41.26-66.09-1.38-8.29,33.7-1,112.91,27.82,125.64C1821.28,1334.54,1837.24,1319.83,1843.84,1309Z" transform="translate(-320 -62.9)"/><path class="cls-43" d="M1845.48,1298.93c8.26,26.34,16.34,47.19,25.33,58.42,9.84,12.28,20.56,13.64,28.43,12.78,18-2,16.33-86.28,15.46-116.32-1.28-44.24-46.32-66.74-66.36-33.24-23.37-61.53-47.24-46.77-56-11-7.15,29-1.34,96.59,22.52,111.48C1822.85,1326.06,1833.94,1307.83,1845.48,1298.93Z" transform="translate(-320 -62.9)"/><path class="cls-44" d="M1775.91,1336.68q.35-55.68.68-111.13t.67-110.44l82.32,47.09q40.67,23.27,80.9,46.26C1870.74,1235.18,1827.81,1280.53,1775.91,1336.68Z" transform="translate(-320 -62.9)"/><path class="cls-37" d="M1958.14,1255.34l145.71,84.27c4,2.28,7.13.48,7.14-4.07l.05-16.16a15.67,15.67,0,0,0-7.1-12.28l-145.7-84.28c-3.94-2.28-7.14-.4-7.15,4.06l0,16.16A15.56,15.56,0,0,0,1958.14,1255.34Z" transform="translate(-320 -62.9)"/><path class="cls-37" d="M1958.14,1312.41l145.71,84.28c4,2.28,7.13.47,7.14-4.08l.05-16.15a15.69,15.69,0,0,0-7.1-12.29l-145.7-84.28c-3.94-2.27-7.14-.4-7.15,4.07l0,16.15A15.56,15.56,0,0,0,1958.14,1312.41Z" transform="translate(-320 -62.9)"/><path class="cls-37" d="M1958.14,1369.48l145.71,84.28c4,2.28,7.13.47,7.14-4.08l.05-16.15a15.71,15.71,0,0,0-7.1-12.29L1958.24,1337c-3.94-2.27-7.14-.4-7.15,4.07l0,16.15A15.55,15.55,0,0,0,1958.14,1369.48Z" transform="translate(-320 -62.9)"/><path class="cls-37" d="M1958.14,1426.55l87.23,51.1c4,2.29,7.13.48,7.14-4.07l0-16.15a15.71,15.71,0,0,0-7.1-12.29l-87.22-51.1c-3.94-2.28-7.14-.4-7.15,4.06l0,16.16A15.53,15.53,0,0,0,1958.14,1426.55Z" transform="translate(-320 -62.9)"/><path class="cls-37" d="M1772.48,1401.39c.07-27.77,19.74-39,43.92-25L2066,1519.52c24.15,14,43.71,47.83,43.64,75.6l-1,87.35c-.08,27.76-19.77,39-43.94,25l-249.61-143.17c-24.18-14-43.72-47.83-43.64-75.6Z" transform="translate(-320 -62.9)"/><path class="cls-45" d="M2108.8,1589.68l.09,69.75-.27,23c0,17-7.41,27.73-18.63,30.39l-300.82-173.27c-10.8-15.42-17.78-34.22-17.74-50.84l.52-43.47c12.25-5.56,25.77-10.49,40.5-4.38a42.46,42.46,0,0,1,4.48,2.23c12.45,7.17,22.25,21,32.58,35.11s21.14,28.48,35.61,36.81c1.07.63,2.16,1.21,3.28,1.76,32.94,16.27,41.91-17.51,66.28-4.23l1.41.78c11,6.36,16.84,14.39,23.35,22.86s13.62,17.21,27.21,25c1,.6,2.1,1.19,3.2,1.77,24.48,12.89,50.1-20.36,83-16.65C2101.39,1559,2107.89,1572.32,2108.8,1589.68Z" transform="translate(-320 -62.9)"/><path class="cls-46" d="M2107.4,1588.32l1.3.77.1.58.09,69.76-.27,23c-.08,27.76-19.77,39-43.94,25l-249.61-143.17c-24.18-14-43.72-47.83-43.64-75.59l.14-11.57c12.49-6,24.25-14.55,40.85-7.15a41.29,41.29,0,0,1,3.8,2c12.81,7.38,23.27,21.77,34.24,36.48s22.42,29.63,37.25,38.17c.92.53,1.86,1,2.81,1.52,32.93,16.79,41.39-19,64.14-9.48a30.92,30.92,0,0,1,3.36,1.67c9.5,5.47,14.74,15.3,21.12,25.76s13.85,21.58,27.81,29.63c.58.32,1.15.65,1.75,1C2038.64,1612.69,2054,1557.56,2107.4,1588.32Z" transform="translate(-320 -62.9)"/><path class="cls-47" d="M1772.14,1498.38c1.51-.78,3-1.6,4.51-2.42,10.72-5.87,21.46-11.75,35.84-5,.65.31,1.29.62,1.89,1s1.3.73,1.92,1.1c12.39,7.54,22.59,22,33.16,37.07l1.11,1.58c5.48,7.75,11.08,15.6,17.16,22.62s12.65,13.23,20,17.74l1.4.82,1.41.78c18.29,9.84,29,2.47,38.85-4.29,7.87-5.4,15.16-10.42,25.28-5.95.61.28,1.19.56,1.73.84s1.13.61,1.66.93c8.56,5.22,13.68,14.21,19.28,24.06l1.88,3.28a119.58,119.58,0,0,0,11,16.62A65.25,65.25,0,0,0,2007,1623.8l1.74,1c12.65,7.14,22.71.76,34.14-6.49,15.59-9.88,33.74-21.4,64.56-2.65l1.36.85v6.29l-1.42-.89c-30.76-18.71-48.88-7.21-64.44,2.66-11.46,7.27-21.54,13.66-34.26,6.48l-1.74-1a65.54,65.54,0,0,1-16.79-14.73,120.23,120.23,0,0,1-11.07-16.69l-1.88-3.29c-5.58-9.79-10.67-18.73-19.19-23.92-.54-.33-1.09-.64-1.64-.93s-1.16-.58-1.72-.83c-10.08-4.46-17.34.53-25.18,5.92-9.86,6.78-20.62,14.17-39,4.31l-1.42-.78-1.4-.83c-7.42-4.51-14-10.74-20.1-17.79s-11.71-14.89-17.18-22.64l-1.11-1.58c-10.56-15-20.74-29.48-33.1-37-.64-.39-1.27-.76-1.9-1.1s-1.27-.67-1.89-1c-14.32-6.74-25-.87-35.75,5-1.16.64-2.33,1.28-3.5,1.9C1772.77,1502.2,1772.42,1500.28,1772.14,1498.38Z" transform="translate(-320 -62.9)"/><path class="cls-37" d="M1771.69,1494.56c1.66-.8,3.31-1.65,5-2.49,10.72-5.51,21.46-11,35.84-4.61.65.29,1.29.59,1.89.9s1.3.69,1.92,1c12.39,7.14,22.59,20.84,33.16,35l1.11,1.49c5.48,7.32,11.08,14.73,17.16,21.36s12.65,12.51,20,16.77l1.4.78,1.41.74c18.29,9.33,29,2.41,38.85-3.94,7.87-5.07,15.16-9.78,25.28-5.54.61.26,1.19.52,1.73.79s1.13.58,1.66.88c8.56,4.94,13.68,13.43,19.28,22.73l1.88,3.09a112.2,112.2,0,0,0,11,15.7,64.62,64.62,0,0,0,16.73,13.87l1.74,1c12.65,6.75,22.71.77,34.14-6,15.59-9.29,33.74-20.09,64.56-2.34l1.35.8v5.93l-1.41-.84c-30.76-17.71-48.88-6.92-64.44,2.35-11.46,6.82-21.54,12.82-34.26,6l-1.74-1a64.71,64.71,0,0,1-16.79-13.93,112.71,112.71,0,0,1-11.07-15.76l-1.88-3.1c-5.58-9.25-10.67-17.69-19.19-22.61-.54-.31-1.09-.6-1.64-.87s-1.16-.56-1.72-.79c-10.08-4.23-17.34.47-25.18,5.52-9.86,6.36-20.62,13.31-39,4l-1.42-.74-1.4-.78c-7.42-4.27-14-10.16-20.1-16.82s-11.71-14.07-17.18-21.39l-1.11-1.48c-10.56-14.17-20.74-27.85-33.1-35-.64-.37-1.27-.72-1.9-1s-1.27-.63-1.89-.91c-14.32-6.39-25-.88-35.75,4.61-1.42.73-2.85,1.47-4.28,2.17Q1771.94,1497.32,1771.69,1494.56Z" transform="translate(-320 -62.9)"/><path class="cls-37" d="M1810.28,1481.5c1.1-.66,1.73-1.91,1.74-3.79a12,12,0,0,0-1.71-5.84,12.81,12.81,0,0,0-4.15-4.41,4.47,4.47,0,0,0-4.23-.44c-1.1.63-1.75,2-1.75,3.86a11.8,11.8,0,0,0,1.72,5.78,12.06,12.06,0,0,0,4.23,4.41,4.2,4.2,0,0,0,4.15.43Zm-4.12-11.6a8.28,8.28,0,0,1,3.74,6.59c0,2.43-1.65,3.45-3.76,2.24a8.34,8.34,0,0,1-3.85-6.63c0-2.43,1.68-3.47,3.87-2.2Zm5.55,1.22a15.81,15.81,0,0,1,2.27,7.73c0,2.42-.88,4.27-2.31,5.05s-3.44.65-5.55-.58a16.49,16.49,0,0,1-5.64-5.89,15.82,15.82,0,0,1-2.24-7.67c0-2.54.85-4.29,2.28-5.1s3.46-.69,5.65.57A16,16,0,0,1,1811.71,1471.12Z" transform="translate(-320 -62.9)"/><path class="cls-37" d="M1950.59,1540.35a8.39,8.39,0,0,1,3.82,6.61c0,2.43-1.73,3.41-3.84,2.19a8.39,8.39,0,0,1-3.82-6.61c0-2.43,1.73-3.41,3.84-2.19Zm4.13,11.57c1.1-.63,1.72-2,1.73-3.78a12.11,12.11,0,0,0-1.7-5.85,12.3,12.3,0,0,0-4.15-4.4,4.19,4.19,0,0,0-4.16-.4c-1.1.63-1.72,2-1.73,3.87a11.86,11.86,0,0,0,1.71,5.76,11.42,11.42,0,0,0,4.14,4.37c1.65,1,3.13,1.1,4.16.43Zm1.45-10.36a15.58,15.58,0,0,0-5.57-5.9c-2.19-1.26-4.15-1.43-5.57-.53s-2.28,2.58-2.29,5.1a16.42,16.42,0,0,0,2.25,7.67,16,16,0,0,0,5.56,5.85c2.2,1.26,4.16,1.4,5.58.59s2.28-2.64,2.28-5.07A16,16,0,0,0,1956.17,1541.56Z" transform="translate(-320 -62.9)"/><path class="cls-37" d="M2081.3,1581.15a8.46,8.46,0,0,1,3.82,6.63c0,2.44-1.73,3.42-3.85,2.2a8.49,8.49,0,0,1-3.84-6.63c0-2.43,1.75-3.43,3.87-2.2Zm4.12,11.59c1.1-.65,1.73-1.89,1.73-3.78a11.73,11.73,0,0,0-1.7-5.85,12.13,12.13,0,0,0-4.15-4.4,4.16,4.16,0,0,0-4.15-.39,4.08,4.08,0,0,0-1.83,3.81,12.08,12.08,0,0,0,1.8,5.82,11.51,11.51,0,0,0,4.15,4.37c1.64.94,3.13,1.09,4.15.42Zm1.43-10.37a15.3,15.3,0,0,0-5.54-5.88c-2.19-1.27-4.16-1.43-5.58-.53s-2.34,2.5-2.35,5a16.32,16.32,0,0,0,2.32,7.72,16,16,0,0,0,5.56,5.85c2.19,1.26,4.16,1.4,5.55.57s2.31-2.63,2.31-5.06A15.7,15.7,0,0,0,2086.85,1582.37Z" transform="translate(-320 -62.9)"/><path class="cls-37" d="M1909,837l181.38,105.34c3.47,2,6.26.41,6.27-3.58l0-14.17a13.79,13.79,0,0,0-6.23-10.78L1909.1,808.5c-3.46-2-6.26-.35-6.28,3.57l0,14.17A13.65,13.65,0,0,0,1909,837Z" transform="translate(-320 -62.9)"/><path class="cls-37" d="M1911.26,791.35l181.38,105.34c3.47,2,6.26.41,6.27-3.58l0-14.17a13.8,13.8,0,0,0-6.23-10.78L1911.35,762.82c-3.46-2-6.26-.35-6.28,3.57l0,14.17A13.65,13.65,0,0,0,1911.26,791.35Z" transform="translate(-320 -62.9)"/><path class="cls-37" d="M1909,883l66.67,38.42c3.47,2,6.26.42,6.27-3.58l0-14.17a13.78,13.78,0,0,0-6.22-10.78l-66.67-38.42c-3.46-2-6.26-.35-6.28,3.57l0,14.17A13.65,13.65,0,0,0,1909,883Z" transform="translate(-320 -62.9)"/><path class="cls-24" d="M1830.75,844.08c33.81,19.52,61.3,3.84,61.41-35s-27.2-86.15-61-105.68-61.3-3.85-61.41,35S1797,824.56,1830.75,844.08Z" transform="translate(-320 -62.9)"/><path class="cls-48" d="M1821.73,732.08c-.89,0-1.79.09-2.74.19-17.13-.66-20.23,17-21.36,27.6-1.69,15.84.6,24.14-3.12,31.15a37.87,37.87,0,0,0-4.14,12.19,146.18,146.18,0,0,0,11.7,16.1c3.16-11.75,15.21-22.53,15.22-31.65.89-2.95,3.4-5.51,6.25-7.25l3.66,4c1.62,4.2,2.08,6.63,3.54,9.62,3.33,6.81,3.48,15.1,9.63,11.12,30.69-20.17,23-77.93-18.11-73.15Z" transform="translate(-320 -62.9)"/><path class="cls-49" d="M1843.49,846.38a22.85,22.85,0,0,0-1.3,3.07,70.4,70.4,0,0,1-11.44-5.37c-13.68-7.9-26.3-20.36-36.47-35A17.81,17.81,0,0,1,1797,803a60,60,0,0,0,6.08-10.74,48,48,0,0,1,1.35-6.15,10.3,10.3,0,0,1,1.64-3.36c2.23-3.19,6.24-4.8,13.22-1.88,6.26,2.63,14.54,6.15,21.8,10.66,3.16,2,13.16,9.41,15.31,12.43a10.7,10.7,0,0,1,1.95,5.67C1859.1,820.66,1848.28,836.86,1843.49,846.38Z" transform="translate(-320 -62.9)"/><path class="cls-34" d="M1832.77,770.41c-1.14,6.48.7,14.26,1,20.06-5.3,4.91-14.29,1.67-16.49-2.78.47-2.88,1-5.53,1.32-8.48Z" transform="translate(-320 -62.9)"/><path class="cls-50" d="M1859.88,811.19c1.3,8.13-.46,25.56-2.72,41.27a49.8,49.8,0,0,1-17.36-3.92c-.45-9.95-.76-20.71-.09-25.6,1.26-9.18,5.76-19.46,12.37-19.7C1856.9,803.06,1859.14,806.56,1859.88,811.19Z" transform="translate(-320 -62.9)"/><path class="cls-36" d="M1810.85,743a21,21,0,0,0-3.45,14.4,6.15,6.15,0,0,1-.49,3.44c-2.47,5.58-2.25,7.32-1,11.79s1.12,6.62,2.6,8.12,3.8,1.89,5.74,2c4,.25,10.76-2.37,14.71-4.53,2.93-1.6,2.82-2.69,4-5.47,4.14-3.6,1.46-6.22.07-6.49-4-.77-4.61,3.8-7,4.82C1826.47,763,1811.14,749.44,1810.85,743Z" transform="translate(-320 -62.9)"/><path class="cls-51" d="M1024.9,1170.62c-23.63-30.66-39.31-70-39.21-104.39l1.79-797.87c41,21.18,48.45,75.58,47.65,130.87,65.07,200.7,81.38,300.54,30,328.27-7.16,23.39-14.42,24.35-19.88,67.58C1039.84,937.33,1016.2,1060.84,1024.9,1170.62Z" transform="translate(-320 -62.9)"/><path class="cls-18" d="M697.23,1382.21l211.29-120.34c23-10.53,56-18.91,79.48-6.69,21.38,11.13,56.61,33.9,72.18,42.79,11.83,6.74,52.9,31.35,27.32,45.25-75.25,40.92-149.71,86.94-226.12,128.5-14.45,7.86-35.59,10.7-57.78,8.86s-44.76-8.27-62.58-18.64q-19-11.07-37.47-21.81c-16.58-9.65-25.36-21.06-26.23-31.61C676.46,1398.21,683.09,1388.66,697.23,1382.21Z" transform="translate(-320 -62.9)"/><path class="cls-52" d="M1006.08,670.73C990.71,655.48,940.59,519,919.93,459c-11.72-34,3.64-60.68,36.2-63.12,64.43-4.81,72.3,96.23,81.76,136.44,10.57,44.93,25.43,82.31,22.45,113.95C1058.16,669.56,1022.08,686.6,1006.08,670.73Z" transform="translate(-320 -62.9)"/><path class="cls-53" d="M782.1,1309.43c-1.3,4.72-.57,8.65-2.89,14.84a172.68,172.68,0,0,0-7.63,23.84c-3.91,16.61,1.47,38.86-3.81,62.35-2.71,9.4-2.51,16.92,3.73,25.22,6.12,8.13,17.64,21.17,32.65,20.68a22.47,22.47,0,0,0,15.83-7.68,37.83,37.83,0,0,0,9.47-27.85c-.33-4.48-2.93-18.91-2.48-32,.38-11.51,2.49-17.85,2.23-30.46-.28-13.34-1.31-31.7-1.52-40.31Z" transform="translate(-320 -62.9)"/><path class="cls-53" d="M914.72,1241.09c-4.35,11.82-7.22,16.87-7.42,33.36,2.67,8.71,8.8,12.25,15.64,18.26l4.82,1.06c11.94,6.46,16.31,29.13,27.4,39.45,7.82,7.29,23.38,11.25,38.84,14.23,16.51,3.19,32.2-1.53,27.9-14.51-10.68-32.27-56.84-68.71-57.9-104.76Z" transform="translate(-320 -62.9)"/><path class="cls-54" d="M984,1011.12c-1.19,61.81-18,176.38-16,237.29-18.67,12.95-44,10-54.33-6.23-6.41-56-13.88-133.6-14.62-164.36-.62-25.59,1.68-49.13,8.22-72.12-9.18-67.63-48.24-159.92-38.94-223.55,4.08-27.95,22.4-58,27.73-81.09,46.07,56.76,81.17,29.55,100.24,24.62-.11,19.61,1.38,17,.74,37.61-2.15,69.69-5.39,144.12-9.22,216.44C988,990.53,987,1002.4,984,1011.12Z" transform="translate(-320 -62.9)"/><path class="cls-55" d="M913.71,1242.18c-6.41-56-13.88-133.6-14.62-164.36-.62-25.59,1.68-49.13,8.22-72.12-9.18-67.63-48.24-159.92-38.94-223.55,4.08-27.95,22.4-58,27.73-81.09,19,23.39,51.4,56,50.37,89.22C944.33,860,940,931,936.13,1003.34,937.08,1082.06,923.64,1121.71,913.71,1242.18Z" transform="translate(-320 -62.9)"/><path class="cls-56" d="M881.39,1056.08c-11.1,61.81-44.78,223.41-52.49,284.32-19.95,11.08-45.42,5.3-52.47-10.91-.23-56,1.29-168.45,5.48-199.21,3.49-25.59,15.43-64.12,25.66-87.11,1.67-67.63-19.75-161.79-.23-225.43,8.56-27.94,31.7-58,40.74-81.09,12.36,19,27.36,27,68.23,23.65,4-.32,38.08-24.67,49.33-27.46-14.26,85.92-55.36,198.14-75.35,291.85C888.69,1035.49,885.82,1047.36,881.39,1056.08Z" transform="translate(-320 -62.9)"/><path class="cls-57" d="M854.8,441C825.91,459,809.67,475.1,794.68,494.6c-20.88,27.18-22.38,43.84-19.77,79.1,2.93,39.53,30.62,85.38,39.24,130,4.15,21.49,11.24,54.86-3.51,91.49-11.36,28.19,17.7,41.17,56.65,38.83,46.1-2.77,103.94-28.26,130.68-74.19,7.46-12.81-6.62-141.39,15.22-216,11.78-40.25,7.65-102.93-15-129C957.28,367.82,908.85,407.48,854.8,441Z" transform="translate(-320 -62.9)"/><path class="cls-58" d="M854.8,441C825.91,459,809.67,475.1,794.68,494.6c-20.88,27.18-22.38,43.84-19.77,79.1,2.93,39.53,30.62,85.38,39.24,130,4.15,21.49,11.24,54.86-3.51,91.49-11.36,28.19,17.7,41.17,56.65,38.83a174.79,174.79,0,0,0,43.34-8.51c9.07-71.64,10.4-164.19-1.14-231.55-4.11-24-12.29-48.3-21.31-75.48-18-54.39-4.09-79.92,21.15-110.87C891.89,416.84,873.69,429.31,854.8,441Z" transform="translate(-320 -62.9)"/><path class="cls-59" d="M854.8,441C825.91,459,806.29,474,791.31,493.47c-20.89,27.18-22.38,43.84-19.77,79.11,2.92,39.53,29.78,88.75,38.39,133.34,3.07,15.86,17.8,33.53-8.78,111.82-21.39,63,3.59,152.17-13.83,229.93,19.25,18.47,43.29,24.17,68.16,22,35-173.08,80.12-404.5,24.62-541.41-6.92-17.07-14.78-51.53-14.11-62.46,2.62-42.69,54.07-58.51,84.07-7.16,50.06,85.68,31.43,397,25.09,551.08,12.17-11.92,20.13-23.19,21.71-31.14,3.14-59.41,7.72-387.78,20.83-432.6,11.77-40.25,3.15-105.19-19.53-131.23C957.28,367.82,908.85,407.48,854.8,441Z" transform="translate(-320 -62.9)"/><path class="cls-60" d="M779.47,511.52c-9.53,18.14-9.92,34.21-7.93,61.06,2.92,39.53,29.78,88.75,38.39,133.34,3.07,15.86,17.8,33.53-8.78,111.82-21.39,63,3.59,152.17-13.83,229.93a80.87,80.87,0,0,0,11.44,9.16c31.38-76.67,8.13-219.73,51.54-299.58,23-.36,39.29,2.37,53.45,4.26,2.65-30.41,2.76-53.32,2.7-82.18-16.5-3.69-31.77-9.81-54.74-22.44,4-63.55,4.87-98.32-8.42-122.72C832.68,514.68,814.3,507,779.47,511.52Z" transform="translate(-320 -62.9)"/><path class="cls-61" d="M936.55,504.07c14.59,40.39,2.22,55.49-14.79,83C903.23,617,907.85,653.13,909.12,691.7c7.19,11.5,20.93,24.07,33.37,31.67,5.17-24.37,9.44-33.78,15.56-47.32-8.83-19.34-11.49-43.54-7.2-60.91,8.47-34.27,31-62.3-3-114.74,3.44-14.32,4.1-18.83,1.15-20.47-3.46-1.93-2.69-.22-13.49.85-6.46.63-16.79,2.32-15,9.52C921.85,495.83,926.29,501.49,936.55,504.07Z" transform="translate(-320 -62.9)"/><path class="cls-34" d="M942.41,460.19c1.06-2.26,2.23-4.49,3.39-6.9,3.3-6.9,5-21.48,11.18-37.62L896.46,388l-12.81-7.22c2.26,24-5.88,43.83-14.56,60.83-3.25,23,42.25,33.46,66.22,39.35C938.13,475.34,939.19,467.14,942.41,460.19Z" transform="translate(-320 -62.9)"/><path class="cls-62" d="M935.3,480.94c1.29-3.3,2-10.11,3.35-16,1.25-5.3,6-18.32,6-21.72,5.4,1.38,8.8,32,14.95,44.95C950.12,481.5,946,480.92,935.3,480.94Z" transform="translate(-320 -62.9)"/><path class="cls-62" d="M870.61,436.82c.81,22.83,39.28,38.53,64.92,44.14-6.22,7.51-14.26,17-13.94,24.45-17.87-4.89-48.19-13.3-60.47-36.16C852.72,453.63,860.76,442.2,870.61,436.82Z" transform="translate(-320 -62.9)"/><path class="cls-36" d="M935.92,451.13c-6.8-5.28-23.56-16.19-29.62-21.38-13.25-11.36-10.55-24.36-13-45.25-12.41-10.37-16.26-18.14-16.79-26.64-1.27-20.18,11.74-40.83,27.88-51.43,14.1-9.27,29.65-11,46.6-5.9,32.93,9.87,45.94,28.75,45.51,57.84,0,2.49-1.67,12.23-2.62,14.64-2.25,5.69-3.93,6.5-5.08,10.52a19.19,19.19,0,0,0,.17,10.06c2.4,10-13.46,54.12-20.51,58.39C960.56,456.72,947.56,458.14,935.92,451.13Z" transform="translate(-320 -62.9)"/><path class="cls-63" d="M968.33,351.54c-7.35-5.39-34.75-25.61-46.52-35.11-12-9.72-25.23-20.11-37.59-13.45-11.48,10.43-17.75,31.5-17.69,43.84.08,17.67,9,34.52,21.52,52.77,4.72,6.87,8-17.6,10.64-22.4,1.67,9.17,4.15,13.35,6.81,14.4,1.93.76,3.94,2.31,5.8-8.72,2.85-16.91,11.31-18.27,9.32-30-1.6-9.4,4.08-7.33,6.58-10.49C939.52,345.05,949.92,353.15,968.33,351.54Z" transform="translate(-320 -62.9)"/><path class="cls-36" d="M894,366.32c-12.2-6.69-14.91,8.27-14.48,17.71.29,6.48,5.52,6.91,6.52,12.17,1.2,6.25,5.28,9.79,9.19,10.36,7.93,1.17,5.1-11.42,5-16.24C902.44,382.85,901.72,370.56,894,366.32Z" transform="translate(-320 -62.9)"/><path class="cls-64" d="M883.12,303.91c9.41,4.31,19.79,16.76,32.74,26.85,17.84,13.89,39.08,25.27,56.74,23.56,10.15-1,21.33-6.49,23.51-10.55C1028.74,283.05,907.82,251.12,883.12,303.91Z" transform="translate(-320 -62.9)"/><path class="cls-65" d="M973.23,431c-1.34-.19-1.88.43-3.47.74a12.34,12.34,0,0,0-5.16.42c-3.32,1-3.86,2.83-8.81,3.89-1.5.31-1.25.56.26,1.23,2.4,1.06,11.1,1.18,14.73,0,2.4-.81,1.67-2.05,2.92-3.21C974.64,433.14,975.89,431.34,973.23,431Z" transform="translate(-320 -62.9)"/><path class="cls-66" d="M956.28,389.28c-7.28,1.75-12.89,1.77-20.56-3C942.89,392.72,949.91,392.72,956.28,389.28Z" transform="translate(-320 -62.9)"/><path class="cls-66" d="M976.79,386.09c6.39-.25,6.56.06,11.84-2.91-3.5,3.77-6.39,4.16-12,3.93Z" transform="translate(-320 -62.9)"/><path class="cls-66" d="M974.31,392.46c1.12,7,1,10.45,4.07,15.39,5.31,8.53,2.32,11.8-6.47,12.68,9.31-2.4,8.32-5.09,4.93-12.66C974.72,403.16,974.72,400.23,974.31,392.46Z" transform="translate(-320 -62.9)"/><path class="cls-66" d="M985.41,385.68c-1.27,3.07-4.62,3.92-6.55,1.17A17,17,0,0,0,985.41,385.68Z" transform="translate(-320 -62.9)"/><path class="cls-66" d="M942,389.79c1.27,3.07,4.63,3.92,6.56,1.17A17.13,17.13,0,0,1,942,389.79Z" transform="translate(-320 -62.9)"/><path class="cls-36" d="M985.63,529.43c-3.54-6.71-13.33-17.87-21.81-26.64-10.8-11.17-15.53-22.7-16.93-40.85-.3-3.85,4-9.76,8.57-10.46a54.68,54.68,0,0,1,7.75-.44c3-4.5,3.83-5.19,8.1-8.76,3.34-2.8,5.54-3.1,9.72-1.46,6.37,2.51,11.88,5.15,14.4,7.5s7,9.58,10.83,16.62c3.32,6.09,7.57,17.57,6.18,22.14-3.05,10-6.09,12.26-4.46,18.54l4.41,16.93Z" transform="translate(-320 -62.9)"/><path class="cls-36" d="M957.12,450.81c2.53-5.14,2.19-5.59,6.14-9.94,3.09-3.41,5.35-4,10-2.93,7,1.7,13.17,3.67,16.14,5.77s8.7,9,13.74,15.82c4.35,5.89,5.4,8.61,8.45,17.23l-6.14,1-13.56-3.87C970.41,472.64,960.47,452.17,957.12,450.81Z" transform="translate(-320 -62.9)"/><path class="cls-34" d="M995.28,478.34c-4,0-2.83.87-6.38-.93-.29,3.49-2.95,6.94-4.45,6.41a6.22,6.22,0,0,1-3.73-4.87,11.43,11.43,0,0,1,5.45-11c1.64-.94,7.42-.68,15.2-.28,4,.2,5.85,0,7.35,2a18.42,18.42,0,0,1,2.67,6.15c1.51,5.56,1.92,10.26.06,13.21C1006.75,485.11,1002.53,475.81,995.28,478.34Z" transform="translate(-320 -62.9)"/><path class="cls-34" d="M956.05,451.2c2.53-5.14,3.26-6,7.21-10.33a12.2,12.2,0,0,1,3.07-2.6l19.08,29.94c-1.95,2.26-8,12.45-.64,15.69C978.2,481.05,965.36,469.94,956.05,451.2Z" transform="translate(-320 -62.9)"/><path class="cls-36" d="M949.43,475.29c-2.91-6-2.13-10.48-3.32-16.14-.85-4,.94-8.87,5.81-9.62a58.21,58.21,0,0,1,8.18-.46l5.22,1.26c3.25,8.54-2.65,13.85-7.54,14-1,.88,2.29,18.81,3.81,25.45C962,491.75,953.08,484.83,949.43,475.29Z" transform="translate(-320 -62.9)"/><path class="cls-34" d="M965.35,450.09c-.28,5.56-5.82,11.94-15.55,11,4.09,3.36,8.56,3.58,12,2.11C966.9,461,969.69,455,965.35,450.09Z" transform="translate(-320 -62.9)"/><path class="cls-67" d="M975.47,515.56c3.75,5.8,31.39-1.92,33.72-7.12l4.33,10.13c2.88,2.49,7.8,7.46,9.32,10.13,21.93,38.61,28.48,74,36.37,117.92,5.1,28.41-24.09,42.27-41.57,32.21C984,659.45,979,569.61,976.71,538.07c-.15-2.17,2.59-8.17,2.16-10.29C977.85,524.59,976.21,517.51,975.47,515.56Z" transform="translate(-320 -62.9)"/><path class="cls-68" d="M975.47,515.56c.89,1.37,3.11,2,6,2.06.61,5.59,1.23,8.75,3.22,10.71,13.37-2.14,16.57-4,28.81-9.76-6,8-17.23,15-24.25,17.17.46,19.64,16.34,128.65,51.4,144.51-7.64,2.79-16.22,2.5-23-1.42C984,659.45,979,569.61,976.71,538.07c-.16-2.17,2.59-8.17,2.16-10.29C977.85,524.59,976.21,517.51,975.47,515.56Z" transform="translate(-320 -62.9)"/><path class="cls-36" d="M950.47,714c.57.09,17.87-9.13,25-7.88,22.26,3.9,21.25,5,44.88,5.28-6.46,9.11-11.07,10.55-21.89,8.27C976.81,718.8,966,729.11,950.47,714Z" transform="translate(-320 -62.9)"/><path class="cls-69" d="M952.81,783.08l84.49-105.39-5.32-7.13-86.83,105h0c-1.36,1.68-2,2.91-2.09,3.69a.89.89,0,0,0,.15.62l5.33,7.13C950.36,786.59,952.25,783.77,952.81,783.08Z" transform="translate(-320 -62.9)"/><path class="cls-70" d="M1198.89,568.58l-141.42,81.64,5.33,7.13,143.1-80.29c1.19-.69,8.24-3.87,9.28-5.26l-5.32-7.12c-1.07-1.37-6.6,1.51-6.63,1.52C1201.74,566.93,1200.32,567.75,1198.89,568.58Z" transform="translate(-320 -62.9)"/><path class="cls-71" d="M1062.8,657.35l-5.33-7.13-.15.09a122.74,122.74,0,0,0-13.08,8.94c-2,1.54-3.86,3.1-5.72,4.77a59.39,59.39,0,0,0-6.54,6.54l5.32,7.13C1044.35,683.65,1065.37,675.7,1062.8,657.35Z" transform="translate(-320 -62.9)"/><path class="cls-72" d="M1205.08,575.2,1062.8,657.35c-9.31,5.37-20.72,14.48-25.5,20.34l-86.82,105c-4.78,5.86-1.12,6.27,8.18.9L1101,701.4c9.28-5.36,20.69-14.46,25.47-20.32l86.82-105C1218,570.25,1214.37,569.84,1205.08,575.2Z" transform="translate(-320 -62.9)"/><path class="cls-36" d="M1042.68,710.75c-9.86-2.53-21.17,4.18-36.61,8.22-20,5.22-16.56-5.13-31.33-8.83-11.4-2.85-23.1,3.13-46.56-.55l-7.51,29.49,2.28,2.85c18.62,2.13,22.18,3.82,33.7,9.3,9.09,4.31,15.7,7,21.26,7.32,10.35.55,23.87-4.75,36.2-10.39,10.68-4.89,11.47-5.88,16.92-16.21Z" transform="translate(-320 -62.9)"/><path class="cls-73" d="M840.6,543.93c1.39,34.52-10.5,84.81-14.07,123.91,28,6.74,67.91,22.1,92.36,30.14,4.7,1.54,7.5,6.42,10.71,9.56,3.36,1.32,6.6,1.3,10.14,1.78,2.35,2.55-.79,26.19-8.37,34.71-2.34-.68-11.64-1.61-14.17-2.18-4.8-.11-8.86,2.54-12.76,2.28-10.39-.69-45.64-7.07-73.84-12.91-8.63-1.79-32.74-8.11-47.25-15.38a41.32,41.32,0,0,1-9.4-6.13,20.44,20.44,0,0,1-6.65-7.91c-5.87-31.79-7.31-90.43-7.65-116.17-.69-52.63,16-79.38,41.21-81.46C824.18,502.24,839.36,513.14,840.6,543.93Z" transform="translate(-320 -62.9)"/><path class="cls-74" d="M2184.08,420.57l-.75,266.84c-.06,19.48-14,27.42-30.93,17.62L1902.88,561c-17-9.79-30.78-33.73-30.72-53.21l1-369c.06-19.48,14-27.4,30.92-17.62l163,94.11Z" transform="translate(-320 -62.9)"/><path class="cls-75" d="M1913.87,265.9l121.32,70c5.15,3,9.23.65,9.24-5.11l0-17.89c0-5.76-4-12.93-9.18-15.9L1914,227c-5-2.89-9.09-.42-9.1,5.35l-.05,17.89C1904.81,256,1908.86,263,1913.87,265.9Z" transform="translate(-320 -62.9)"/><path class="cls-75" d="M2143.13,462.68c3.52,2,6.37.41,6.38-3.64l0-12.6a13.92,13.92,0,0,0-6.35-11L1911.25,301.53c-3.52-2-6.38-.4-6.39,3.65l0,12.61a14,14,0,0,0,6.34,11Z" transform="translate(-320 -62.9)"/><path class="cls-75" d="M2143.13,525.55c3.52,2,6.37.41,6.38-3.64l0-12.6a13.92,13.92,0,0,0-6.35-11L1911.25,364.4c-3.52-2-6.38-.4-6.39,3.64l0,12.61a14,14,0,0,0,6.34,11Z" transform="translate(-320 -62.9)"/><path class="cls-75" d="M2143.13,588.42c3.52,2,6.37.41,6.38-3.65l0-12.59a13.94,13.94,0,0,0-6.35-11L1911.25,427.27c-3.52-2-6.38-.41-6.39,3.64l0,12.61a14,14,0,0,0,6.34,11Z" transform="translate(-320 -62.9)"/><path class="cls-75" d="M2143.13,653.68c3.52,2,6.37.41,6.38-3.64l0-12.6a13.94,13.94,0,0,0-6.35-11L1911.25,492.53c-3.52-2-6.38-.41-6.39,3.64l0,12.61a14,14,0,0,0,6.34,11Z" transform="translate(-320 -62.9)"/><path class="cls-76" d="M2184,474.24,2080.19,400c-30.65-28.18-30.68-43.17-28.5-77.6l14.23-107.89,1.39.8,116.75,205.2Z" transform="translate(-320 -62.9)"/><path class="cls-77" d="M2184.08,420.57l-86.41-49.89c-17.07-9.86-30.9-33.81-30.84-53.28l.29-102.16Z" transform="translate(-320 -62.9)"/><path class="cls-18" d="M1286.11,1454c7-4.07,18.54-4.07,25.53,0l28.21,16.4,16.47-9.51a10.77,10.77,0,0,1,9.75,0l40.57,23.58c2.67,1.55,2.66,4.09,0,5.65l-16.47,9.5,27.59,16c7,4.06,7,10.72-.09,14.79l-30.22,17.44,97.78,56.83c10,5.83,10,15.32-.1,21.15l-408.72,236c-10.12,5.84-26.5,5.83-36.53,0L729.93,1681.76c-10-5.83-10-15.31.12-21.15l408.72-236c10.1-5.83,26.47-5.82,36.51,0l80.61,46.84Z" transform="translate(-320 -62.9)"/><path class="cls-78" d="M1399.46,1501.84l13.4-9.46a65.72,65.72,0,0,1,8.89-4.68l0,12.67c0,2.7-1.76,5.4-5.31,7.45l-15.19,8.77-17.86,10.31,0-12.66Z" transform="translate(-320 -62.9)"/><path class="cls-79" d="M1383.28,1448.57a2.48,2.48,0,0,1,1,1.6c.3,1.39-.38,9.22-.37,11.26a1.59,1.59,0,0,0-.89-1.25l-18-10.44-1-6.84.94-4.32Z" transform="translate(-320 -62.9)"/><path class="cls-80" d="M729.23,1645.06l292.34,168.16c29.53,12.73,44,17.41,54.4,11.39l-.62,10.2c-8.69,5-22,5.71-32,2.11a63.2,63.2,0,0,1-10-5.2l-304.79-177c-3.62-2.11-7.1-5.42-7.49-9.83a85.43,85.43,0,0,1,.13-8.67c0-.61,0-.9,0-1.41Z" transform="translate(-320 -62.9)"/><path class="cls-78" d="M1484.05,1589.17c5.12-3,6.86-5.81,7.44-9.57l.25,8.5c0,3.89-2.55,7.78-7.67,10.73l-408.72,236,0-9.66Z" transform="translate(-320 -62.9)"/><path class="cls-78" d="M1360.79,1438.05c1.2-.69,3.11-.16,4.3.53l0,11.16a4.8,4.8,0,0,0-4.32,0l-8.11,4.68v-11.68Z" transform="translate(-320 -62.9)"/><path class="cls-78" d="M1400.3,1452.64c1.36-.78,7.14.37,7.14-.66l0,12.66a3.47,3.47,0,0,1-2,2.85L1389,1477l0-12.66Z" transform="translate(-320 -62.9)"/><path class="cls-81" d="M1374.94,1456.2l8.1-4.68a1.32,1.32,0,0,0,0-2.5l-18-10.44a4.76,4.76,0,0,0-4.33,0l-8.1,4.68,22.28,13ZM728.86,1625.3l408.72-236c10.1-5.83,26.47-5.82,36.51,0l80.61,46.84,30.21-17.44c7-4.07,18.55-4.07,25.53,0l28.22,16.4,16.47-9.51a10.77,10.77,0,0,1,9.75,0l40.57,23.58c2.67,1.55,2.66,4.09,0,5.65l-16.47,9.51,27.59,16c7,4.06,7,10.72-.09,14.79l-30.22,17.44,97.78,56.83c10,5.83,10,15.32-.1,21.15l-408.72,236c-10.12,5.84-26.5,5.83-36.53,0L728.74,1646.45C718.7,1640.62,718.74,1631.14,728.86,1625.3Z" transform="translate(-320 -62.9)"/><path class="cls-38" d="M753,1624.19l382.64-220.92c9.45-5.46,24.78-5.45,34.18,0l290.14,168.61c9.39,5.46,9.35,14.34-.1,19.8L1077.17,1812.6c-9.47,5.47-24.8,5.46-34.2,0L752.83,1644C743.44,1638.54,743.48,1629.66,753,1624.19Z" transform="translate(-320 -62.9)"/><path class="cls-82" d="M1126.21,1411l320.18,186.07,10.73-6.16c9.45-6.06,10.39-14-6.53-22.45L1174.49,1408c-19.62-11.38-33.62-6-37.62-3.15Z" transform="translate(-320 -62.9)"/><polygon class="cls-37" points="699.46 1420.41 797.48 1477.38 891.43 1423.14 793.4 1366.18 699.46 1420.41"/><polygon class="cls-83" points="703.52 1422.55 732.76 1439.47 773.15 1434.65 764.7 1458.03 793.81 1475.02 809.29 1430.32 887.37 1421.01 859.36 1404.73 816.47 1409.64 825.07 1384.8 797.08 1368.53 780.73 1413.72 703.52 1422.55"/><polygon class="cls-37" points="581.4 1488.58 679.42 1545.54 773.37 1491.3 675.35 1434.34 581.4 1488.58"/><polygon class="cls-37" points="463.34 1556.74 561.36 1613.7 655.3 1559.46 557.28 1502.5 463.34 1556.74"/><polygon class="cls-83" points="681.29 1425.02 676.29 1434.88 638.87 1508.69 757.28 1498.22 731.83 1483.42 679.74 1488.02 699.7 1448.49 704.69 1438.62 681.29 1425.02"/><polygon class="cls-83" points="511.29 1576.58 559.08 1491.83 574.89 1505.43 525.58 1586.53 511.29 1576.58"/><path class="cls-83" d="M1223.05,1508.7c-2.46,1.42-2.47,3.74,0,5.15l148.09,86.07a9.84,9.84,0,0,0,8.89,0l6.84-4c2.44-1.41,2.45-3.73,0-5.14l-148.1-86.06a9.83,9.83,0,0,0-8.87,0Z" transform="translate(-320 -62.9)"/><path class="cls-37" d="M1164.4,1542.57l5.21-3a7.46,7.46,0,0,1,6.76,0l103.52,60.16c1.84,1.07,1.83,2.84,0,3.91l-5.22,3a7.51,7.51,0,0,1-6.77,0l-103.52-60.16c-1.85-1.08-1.83-2.84,0-3.92Zm118.1,17.2a2.75,2.75,0,0,0,1.31-1.43,1.7,1.7,0,0,0,0-1.07,2.73,2.73,0,0,0-1.3-1.43l-67-38.91a7.48,7.48,0,0,0-6.77,0l-2.2,1.27-3,1.73a2.42,2.42,0,0,0-1.41,2,2.36,2.36,0,0,0,1.39,1.95l67,38.91a7.57,7.57,0,0,0,5.19.62,5.84,5.84,0,0,0,1.58-.61l5.21-3Zm-97.31-29.21c-1.87,1.08-1.88,2.84,0,3.92l150.2,87.29a7.52,7.52,0,0,0,6.76,0l5.21-3c1.87-1.07,1.88-2.83,0-3.91l-150.21-87.29a7.46,7.46,0,0,0-6.76,0Z" transform="translate(-320 -62.9)"/><path class="cls-37" d="M1046.34,1610.73c-1.87,1.08-1.89,2.84,0,3.92l103.52,60.16a7.51,7.51,0,0,0,6.77,0l5.21-3c1.86-1.08,1.86-2.85,0-3.92l-103.52-60.16a7.52,7.52,0,0,0-6.76,0l-5.2,3Zm39.19-22.63,5.2-3a7.48,7.48,0,0,1,6.77,0l67,38.91c1.86,1.08,1.85,2.85,0,3.93l-5.2,3a7.54,7.54,0,0,1-6.77,0l-67-38.92c-1.86-1.08-1.85-2.83,0-3.91Zm-18.4,10.62,5.22-3a7.44,7.44,0,0,1,6.75,0L1229.31,1683c1.85,1.08,1.84,2.84,0,3.92l-5.22,3a7.52,7.52,0,0,1-6.76,0l-150.2-87.29C1065.25,1601.56,1065.26,1599.8,1067.13,1598.72Z" transform="translate(-320 -62.9)"/><path class="cls-83" d="M1105,1576.87c-2.44,1.41-2.46,3.73,0,5.14l148.1,86.07a9.83,9.83,0,0,0,8.87,0l6.84-3.95c2.45-1.42,2.46-3.74,0-5.15l-148.1-86.07a9.88,9.88,0,0,0-8.88,0Z" transform="translate(-320 -62.9)"/><path class="cls-37" d="M900.34,1687.69c-1.86,1.08-1.89,2.84,0,3.92l103.52,60.16a7.52,7.52,0,0,0,6.76,0l5.21-3c1.87-1.08,1.86-2.84,0-3.91L912.3,1684.69a7.46,7.46,0,0,0-6.76,0l-5.2,3Zm39.19-22.62,5.21-3a7.48,7.48,0,0,1,6.77,0l67,38.91c1.86,1.08,1.85,2.85,0,3.92l-5.2,3a7.48,7.48,0,0,1-6.77,0l-67-38.91c-1.85-1.08-1.84-2.84,0-3.91Zm-18.4,10.62,5.22-3a7.44,7.44,0,0,1,6.75,0L1083.31,1760c1.86,1.08,1.85,2.83,0,3.91l-5.22,3a7.44,7.44,0,0,1-6.75,0L921.11,1679.6C919.26,1678.53,919.27,1676.77,921.13,1675.69Z" transform="translate(-320 -62.9)"/><path class="cls-18" d="M1528.35,1661.56l49.21-8.3h0l14-2.57c1.38-.26,1.45-.18.45,1l-10,11.5-30,35.22v-.05l-11.44,14.46-378.74,224.26,0,0h0l0,0v0l-17.65-11.14-6.12-25.66,11.51-14.54h0l378.72-224.25Z" transform="translate(-320 -62.9)"/><polygon class="cls-84" points="1206.38 1584.41 1270.78 1573.56 1233.78 1593.91 1224.01 1595.56 1206.38 1584.41"/><path class="cls-85" d="M1330.72,1810l34.42-23.47L1550.21,1684l-11.49,14.53q-189.39,112.14-378.8,224.29l4.17-8.4,7.32-6.13,78.92-53.8Z" transform="translate(-320 -62.9)"/><path class="cls-83" d="M1526.4,1647.22l17.65,11.14-186.16,121-43.77,21.82-71,46.17-82.72,41.24-12.71-17.06,0,0Z" transform="translate(-320 -62.9)"/><path class="cls-82" d="M1544.05,1658.36l6.16,25.65-378.8,224.29-8.61-11.22,2.45-14.43Z" transform="translate(-320 -62.9)"/><polygon class="cls-86" points="1270.78 1573.55 1230.17 1621.22 1224.01 1595.56 1270.78 1573.55"/><path class="cls-85" d="M1575.72,1639l14-2.57c1.38-.26,1.45-.18.45,1l-10,11.51C1581.21,1645.24,1582.08,1639.71,1575.72,1639Z" transform="translate(-320 -62.9)"/><polygon class="cls-85" points="827.67 1808.56 816.16 1823.11 822.28 1848.77 839.96 1859.92 851.47 1845.37 845.31 1819.71 836.46 1814.1 827.67 1808.56"/></g></g></svg>