<svg xmlns="http://www.w3.org/2000/svg" xmlns:xlink="http://www.w3.org/1999/xlink" viewBox="0 0 1341.55 1396.55"><defs><style>.cls-1{fill:none;}.cls-2{isolation:isolate;}.cls-3{clip-path:url(#clip-path);}.cls-4{fill:url(#linear-gradient);}.cls-5{fill:url(#linear-gradient-2);}.cls-6{fill:url(#linear-gradient-3);}.cls-7{fill:url(#linear-gradient-4);}.cls-8{fill:url(#linear-gradient-5);}.cls-9{fill:url(#linear-gradient-6);}.cls-10{fill:url(#linear-gradient-7);}.cls-11{fill:url(#linear-gradient-8);}.cls-12{fill:url(#linear-gradient-9);}.cls-13{fill:url(#linear-gradient-10);}.cls-14{fill:url(#linear-gradient-11);}.cls-15{fill:url(#linear-gradient-12);}.cls-16{fill:url(#linear-gradient-13);}.cls-17,.cls-18,.cls-19,.cls-20,.cls-21{opacity:0.2;}.cls-17,.cls-18,.cls-19,.cls-20,.cls-21,.cls-32,.cls-35,.cls-36,.cls-37,.cls-39,.cls-41,.cls-42{mix-blend-mode:overlay;}.cls-17{fill:url(#linear-gradient-14);}.cls-18{fill:url(#linear-gradient-15);}.cls-19{fill:url(#linear-gradient-16);}.cls-20{fill:url(#linear-gradient-17);}.cls-21{fill:url(#linear-gradient-18);}.cls-22{fill:url(#linear-gradient-19);}.cls-23{fill:url(#linear-gradient-20);}.cls-24{fill:url(#linear-gradient-21);}.cls-25{fill:url(#linear-gradient-22);}.cls-26{fill:url(#linear-gradient-23);}.cls-27{fill:url(#linear-gradient-24);}.cls-28{fill:url(#linear-gradient-25);}.cls-29{fill:url(#linear-gradient-26);}.cls-30{fill:url(#linear-gradient-27);}.cls-31{fill:url(#linear-gradient-28);}.cls-32,.cls-35,.cls-36,.cls-37,.cls-39,.cls-41,.cls-42{opacity:0.6;}.cls-32{fill:url(#linear-gradient-29);}.cls-33{fill:url(#linear-gradient-30);}.cls-34{fill:url(#linear-gradient-31);}.cls-35{fill:url(#linear-gradient-32);}.cls-36{fill:url(#linear-gradient-33);}.cls-37{fill:url(#linear-gradient-34);}.cls-38{fill:url(#linear-gradient-35);}.cls-39{fill:url(#linear-gradient-36);}.cls-40{fill:url(#linear-gradient-37);}.cls-41{fill:url(#linear-gradient-38);}.cls-42{fill:url(#linear-gradient-39);}</style><clipPath id="clip-path" transform="translate(237.86)"><path class="cls-1" d="M86.39,434c134-111.95,385.37-252.67,670.76-194.5s299.93,512.38-23.63,769.71S175.46,1262,59.12,1150.64,44.58,910.33,86.39,855.75s90.89-145.46-23.63-187.27S11.4,496.64,86.39,434Z"/></clipPath><linearGradient id="linear-gradient" x1="1047.1" y1="62.83" x2="457.14" y2="1172.38" gradientUnits="userSpaceOnUse"><stop offset="0" stop-color="#fff"/><stop offset="1" stop-color="#b8d2e5"/></linearGradient><linearGradient id="linear-gradient-2" x1="-488.9" y1="1076.27" x2="40.13" y2="1076.27" gradientTransform="translate(-62.84 152.92) rotate(-62.43)" gradientUnits="userSpaceOnUse"><stop offset="0" stop-color="#fff" stop-opacity="0"/><stop offset="1" stop-color="#fff" stop-opacity="0.5"/></linearGradient><linearGradient id="linear-gradient-3" x1="124.3" y1="1172" x2="1251.32" y2="1172" gradientTransform="matrix(1, 0, 0, 1, 0, 0)" xlink:href="#linear-gradient-2"/><linearGradient id="linear-gradient-4" x1="124.3" y1="1081.11" x2="1251.32" y2="1081.11" gradientTransform="matrix(1, 0, 0, 1, 0, 0)" xlink:href="#linear-gradient-2"/><linearGradient id="linear-gradient-5" x1="124.3" y1="990.23" x2="1251.32" y2="990.23" gradientTransform="matrix(1, 0, 0, 1, 0, 0)" xlink:href="#linear-gradient-2"/><linearGradient id="linear-gradient-6" x1="124.3" y1="899.34" x2="1251.32" y2="899.34" gradientTransform="matrix(1, 0, 0, 1, 0, 0)" xlink:href="#linear-gradient-2"/><linearGradient id="linear-gradient-7" x1="124.3" y1="717.56" x2="1251.32" y2="717.56" gradientTransform="matrix(1, 0, 0, 1, 0, 0)" xlink:href="#linear-gradient-2"/><linearGradient id="linear-gradient-8" x1="124.3" y1="808.45" x2="1251.32" y2="808.45" gradientTransform="matrix(1, 0, 0, 1, 0, 0)" xlink:href="#linear-gradient-2"/><linearGradient id="linear-gradient-9" x1="866.93" y1="926.2" x2="341.6" y2="1304.3" gradientUnits="userSpaceOnUse"><stop offset="0" stop-color="#76becc"/><stop offset="1" stop-color="#1e96ac"/></linearGradient><linearGradient id="linear-gradient-10" x1="797.61" y1="829.88" x2="272.27" y2="1207.98" xlink:href="#linear-gradient-9"/><linearGradient id="linear-gradient-11" x1="904.34" y1="978.18" x2="379" y2="1356.27" xlink:href="#linear-gradient-9"/><linearGradient id="linear-gradient-12" x1="828.2" y1="872.39" x2="302.87" y2="1250.49" xlink:href="#linear-gradient-9"/><linearGradient id="linear-gradient-13" x1="934.32" y1="1019.83" x2="408.98" y2="1397.93" xlink:href="#linear-gradient-9"/><linearGradient id="linear-gradient-14" x1="496.32" y1="977.8" x2="192.2" y2="1145.83" gradientUnits="userSpaceOnUse"><stop offset="0" stop-color="#001244"/><stop offset="1" stop-color="#000030"/></linearGradient><linearGradient id="linear-gradient-15" x1="694.25" y1="979.59" x2="376.54" y2="1155.13" xlink:href="#linear-gradient-14"/><linearGradient id="linear-gradient-16" x1="913.24" y1="940.74" x2="560.17" y2="1135.82" xlink:href="#linear-gradient-14"/><linearGradient id="linear-gradient-17" x1="1152.86" y1="862.89" x2="743.34" y2="1089.15" xlink:href="#linear-gradient-14"/><linearGradient id="linear-gradient-18" x1="1331.75" y1="754.7" x2="911.3" y2="987" xlink:href="#linear-gradient-14"/><linearGradient id="linear-gradient-19" x1="124.3" y1="626.67" x2="1251.32" y2="626.67" gradientTransform="matrix(1, 0, 0, 1, 0, 0)" xlink:href="#linear-gradient-2"/><linearGradient id="linear-gradient-20" x1="124.3" y1="535.78" x2="1251.32" y2="535.78" gradientTransform="matrix(1, 0, 0, 1, 0, 0)" xlink:href="#linear-gradient-2"/><linearGradient id="linear-gradient-21" x1="609.63" y1="1086.08" x2="35.22" y2="1155.15" gradientTransform="matrix(1, 0, 0, 1, 0, 0)" xlink:href="#linear-gradient-2"/><linearGradient id="linear-gradient-22" x1="642.62" y1="725.33" x2="608.19" y2="747.49" gradientUnits="userSpaceOnUse"><stop offset="0" stop-color="#404f7e"/><stop offset="1" stop-color="#000b57"/></linearGradient><linearGradient id="linear-gradient-23" x1="848.37" y1="693.57" x2="828.46" y2="715.4" gradientUnits="userSpaceOnUse"><stop offset="0" stop-color="#ee8e7e"/><stop offset="1" stop-color="#e45c42"/></linearGradient><linearGradient id="linear-gradient-24" x1="261.43" y1="886.15" x2="269.95" y2="845.59" xlink:href="#linear-gradient-23"/><linearGradient id="linear-gradient-25" x1="303.08" y1="896.83" x2="264.57" y2="901.94" xlink:href="#linear-gradient-22"/><linearGradient id="linear-gradient-26" x1="426.75" y1="105.6" x2="364.03" y2="202.4" xlink:href="#linear-gradient-22"/><linearGradient id="linear-gradient-27" x1="109.86" y1="502.24" x2="159.93" y2="502.24" xlink:href="#linear-gradient-23"/><linearGradient id="linear-gradient-28" x1="590.2" y1="28.69" x2="622.29" y2="28.69" xlink:href="#linear-gradient-23"/><linearGradient id="linear-gradient-29" x1="833.74" y1="701.31" x2="819.33" y2="717.1" xlink:href="#linear-gradient-14"/><linearGradient id="linear-gradient-30" x1="540.58" y1="455.59" x2="364.22" y2="649.07" xlink:href="#linear-gradient-22"/><linearGradient id="linear-gradient-31" x1="514.61" y1="124.32" x2="276.03" y2="410.62" xlink:href="#linear-gradient-9"/><linearGradient id="linear-gradient-32" x1="541.87" y1="547.74" x2="509.28" y2="583.49" xlink:href="#linear-gradient-14"/><linearGradient id="linear-gradient-33" x1="465.42" y1="393.45" x2="271.74" y2="605.93" xlink:href="#linear-gradient-14"/><linearGradient id="linear-gradient-34" x1="362.99" y1="183.8" x2="355.38" y2="132.93" xlink:href="#linear-gradient-14"/><linearGradient id="linear-gradient-35" x1="370.65" y1="177.28" x2="365.84" y2="146.42" xlink:href="#linear-gradient-23"/><linearGradient id="linear-gradient-36" x1="365.73" y1="175.3" x2="361.65" y2="149.1" xlink:href="#linear-gradient-14"/><linearGradient id="linear-gradient-37" x1="362.09" y1="151.9" x2="357.87" y2="123.65" xlink:href="#linear-gradient-23"/><linearGradient id="linear-gradient-38" x1="352.02" y1="159.96" x2="347.73" y2="131.28" xlink:href="#linear-gradient-14"/><linearGradient id="linear-gradient-39" x1="509.89" y1="150.69" x2="469.63" y2="226.4" xlink:href="#linear-gradient-14"/></defs><title>Asset 1</title><g class="cls-2"><g id="Layer_2" data-name="Layer 2"><g id="Your_Illustration" data-name="Your Illustration"><g class="cls-3"><rect class="cls-4" x="98.85" y="105.44" width="1210.63" height="1204.71"/><path class="cls-5" d="M1008.2,666.86s-150.81,15.07-331.93-88.72S231.81,734.72,478.17,905.51c112.22,77.8,267.33-32.84,335.61,89.7s24.26,242.22,211,246.86S1008.2,666.86,1008.2,666.86Z" transform="translate(237.86)"/><rect class="cls-6" x="124.3" y="1169.28" width="1127.02" height="5.45"/><rect class="cls-7" x="124.3" y="1078.39" width="1127.02" height="5.45"/><rect class="cls-8" x="124.3" y="987.5" width="1127.02" height="5.45"/><rect class="cls-9" x="124.3" y="896.61" width="1127.02" height="5.45"/><rect class="cls-10" x="124.3" y="714.83" width="1127.02" height="5.45"/><rect class="cls-11" x="124.3" y="805.72" width="1127.02" height="5.45"/><rect class="cls-12" x="625.15" y="838.44" width="132.65" height="428.08"/><rect class="cls-13" x="285.63" y="1034.76" width="132.62" height="231.77"/><rect class="cls-14" x="794.91" y="751.87" width="132.65" height="514.66"/><rect class="cls-15" x="455.39" y="919.45" width="132.62" height="347.08"/><rect class="cls-16" x="964.7" y="633.94" width="132.62" height="632.58"/><path class="cls-17" d="M47.76,1111.46c34.5,19.5,78,32.26,132.63,34.66v120.41H47.76Z" transform="translate(237.86)"/><path class="cls-18" d="M250.93,1143.83c34.22-3.44,67.32-8.13,99.22-13.83v136.53H217.52V1146.17C228.27,1145.76,239.39,1145,250.93,1143.83Z" transform="translate(237.86)"/><path class="cls-19" d="M387.29,1122.86a1332.66,1332.66,0,0,0,132.65-34.71v178.38H387.29Z" transform="translate(237.86)"/><path class="cls-20" d="M557.05,1075.77a1334.21,1334.21,0,0,0,132.65-54.53v193.81l-56.88,51.48H557.05Z" transform="translate(237.86)"/><path class="cls-21" d="M859.46,923.13V1061.4l-132.62,120V1002.86C787.91,971.34,832.88,942,859.46,923.13Z" transform="translate(237.86)"/><rect class="cls-22" x="124.3" y="623.95" width="1127.02" height="5.45"/><rect class="cls-23" x="124.3" y="533.06" width="1127.02" height="5.45"/><path class="cls-24" d="M6.17,903S126.25,855.8,184.82,965.3s174.65,120.41,240,55,279.39-106.34,313.47,99.52-549.39,276.76-549.39,276.76l-426.75-108.9Z" transform="translate(237.86)"/></g><path class="cls-25" d="M655.81,751.87H593l-3.45-27.4,26-6.91C648.65,731.25,655.81,751.87,655.81,751.87Z" transform="translate(237.86)"/><polygon class="cls-26" points="853.44 717.56 827.4 724.47 819.37 695.81 843.21 687.11 853.44 717.56"/><path class="cls-27" d="M287.82,834l-5,13.36-3.6,9.6-9.81,26.12s-2.79,3.73-11.46,2.4A44.49,44.49,0,0,1,246.86,882l6.71-30,1.77-7.85,4-17.83.14-.6,2.29.68,10.22,3Z" transform="translate(237.86)"/><path class="cls-28" d="M300.66,919.45H273.39l-21.46-10.61-10.6-5.23L246.86,882a44.49,44.49,0,0,0,11.07,3.49c8.67,1.33,11.46-2.4,11.46-2.4L281,901.26S297.77,906.61,300.66,919.45Z" transform="translate(237.86)"/><path class="cls-29" d="M369.76,131.11s27.84-29.55,12.77-43.63-31.43-2.73-31.43-2.73-26.81-14.09-41.81,20.45,1.37,68.92-35.44,92.4-86.14,56.33-69.33,124.5,105.68,97,214.07-21.63C465.37,249.28,366.66,147.47,369.76,131.11Z" transform="translate(237.86)"/><path class="cls-30" d="M159.72,492.78c-.08.88-.16,1.42-.16,1.42s-.71,1.37-1.56,3.57c-1.77,4.61-4.17,12.9-1.85,19.83,2.62,7.85-3.6-.55-11.56-1.64a10.52,10.52,0,0,0-7.53,1.64c-10.91,7.17-32.72,5.8-25.9,1,6.62-4.63,18.76-.9,34.49-23.91.44-.65.87-1.31,1.31-2C161,471.13,160.21,487.6,159.72,492.78Z" transform="translate(237.86)"/><path class="cls-31" d="M590.2,47.54s10-16.19,18.4-30S621.55-2.39,622.24.85s-5,20.28-5,20.28,4.77,3.92-.17,13.29-10.39,2.22-13,17.21S590.2,47.54,590.2,47.54Z" transform="translate(237.86)"/><polygon class="cls-32" points="833.44 722.89 827.41 724.47 819.37 695.81 825.31 693.63 833.44 722.89"/><path class="cls-33" d="M619.9,696.44s-19.53,9.32-39.7,5c-.71-.14-1.39-.3-2.1-.5,0,0-32.91-91.07-63.62-146.09-12.62-22.58-51.91-46.38-72-55.13-5.59-2.46-9.71-3.74-11.31-3.49-23.94,75.69-87.58,215.4-145.74,349.47a9.47,9.47,0,0,1-2.65,1.64c-2.7,1.17-7.63,2.32-15.43.73a60.11,60.11,0,0,1-12-3.92c-1.41-.63-2.89-1.31-4.41-2.07,0,0,50.33-192.64,57.47-431.06.22-7.06.39-14.18.52-21.32.06-2.68.11-5.32.14-8L322.53,380l127.41-16s2.49,1.78,6.68,4.94c1.12.84,2.38,1.77,3.71,2.78,21.82,16.47,72.15,56.17,93.91,87C582.43,498.76,619.9,696.44,619.9,696.44Z" transform="translate(237.86)"/><path class="cls-34" d="M613.71,50.74c-10.53,24-33.3,68.9-71.06,110.7,0,0,0,0,0,0-25.72,28.46-58.44,55.51-99,73.48,0,0,10.44,69.75,20.89,129.05a55.76,55.76,0,0,1-7.86,4.94c-15.76,8.53-56.55,24.92-133.46,21.59-4.61-.21-9.36-.49-14.24-.81l-3.49-.28v-60.2s-10,39.32-144.51,169.27l-2.92-.74-1.28-.3-9.54-2.37-1.53-.38-2.92-.74s15.19-27.64,35.59-66.06c16.68-31.47,36.86-70.13,55.05-106.81,3.43-6.92,6.81-13.77,10.06-20.47v0l0,0c7-14.53,13.57-28.44,19.25-41.09,24.73-55.16,60.69-81.25,94.83-92.54a151.12,151.12,0,0,1,37.79-7.25,166.2,166.2,0,0,1,17.34-.19C456.3,161.33,519,130.41,590.83,44.09,590.83,44.09,603.51,45.23,613.71,50.74Z" transform="translate(237.86)"/><path class="cls-35" d="M580.2,701.46c-.71-.14-1.39-.3-2.1-.5,0,0-32.91-91.07-63.62-146.09-12.62-22.58-51.91-46.38-72-55.13-5.59-2.46-9.71-3.74-11.31-3.49l10.25-34.09S553.69,508.71,580.2,701.46Z" transform="translate(237.86)"/><path class="cls-36" d="M460.33,371.72c-1.33-1-2.59-1.94-3.71-2.78h0s-144.83,52.15-137.08-72.06a181.84,181.84,0,0,0-.35-24.19,224.49,224.49,0,0,1-14.44,23.15C284.33,325,215.07,386.31,178.32,427.92,157.92,466.34,142.73,494,142.73,494l2.92.74,1.53.38c5.18.85,7.42,4.9,7,5.58-5.54,8.53-7.28,11.82-9.57,15.28,8,1.09,14.18,9.49,11.56,1.64-2.32-6.93.08-15.22,1.85-19.83l2.92.74C295.43,368.56,305.43,329.24,305.43,329.24v60.2l3.49.28q-.18,9.91-.48,19.74c-7,239.15-57.51,432.64-57.51,432.64,1.52.76,3,1.44,4.41,2.07L246.86,882l-5.53,21.62,10.6,5.23c1.15-4.41-3.76-16-1-26.85,2.61-10.2,12.81-19.42,16.44-33.9q2.2-8.91,4.63-18.7c23.45-94.75,58.46-243.79,62.06-301.79.14-2.17.26-4.31.37-6.44,2.64-51.67,32.53-98.45,79.26-120.66A268.48,268.48,0,0,0,460.33,371.72Z" transform="translate(237.86)"/><path class="cls-37" d="M364.41,163l-1.19-14.1c7.17-5.06,7.65-16.81,4.36-29.78a31.29,31.29,0,0,1-2.74,3.24c-7.88,8.1-13.66,8.9-24.87,11,2,3.23,6.65,32.31,6,38.18,0,0,9.2,21.13,26.24,17S364.41,163,364.41,163Z" transform="translate(237.86)"/><path class="cls-38" d="M381.31,192a17.9,17.9,0,0,1-14.75-2.87h0C359,184.05,355.08,175,355.08,175c.79-7.72-3.05-24.71-4.79-31.85-.5-2.05-.82-3.27-.82-3.27l22,2.4.33,3.81,1,11.7.74,8.67S398.36,187.92,381.31,192Z" transform="translate(237.86)"/><path class="cls-39" d="M366.54,189.12v0C359,184.05,355.08,175,355.08,175c.79-7.72-3.05-24.71-4.79-31.85l21.48,2.94,1,11.7C370.27,159.15,357.89,167.36,366.54,189.12Z" transform="translate(237.86)"/><path class="cls-40" d="M366.51,154.71a15.07,15.07,0,0,1-7.31-.6,22.31,22.31,0,0,1-7.39-4.42,40.28,40.28,0,0,1-6-6.68c-.33-.44-.66-.9-1-1.34-.57-.84-1.12-1.63-1.61-2.4-.79-1.31-1.47-2.45-2-3.4l-.57-1.07c-.14-.3-.27-.54-.35-.73s-.17-.33-.22-.44a2.15,2.15,0,0,1-.11-.25c.84-.19,1.66-.38,2.45-.6s1.56-.38,2.29-.6c31-8.72,19.33-26.42,19.33-26.42,2.7-1,6.93.55,8.7,4.94C380.85,130.82,382.19,152,366.51,154.71Z" transform="translate(237.86)"/><path class="cls-41" d="M359.2,154.08v0a22.31,22.31,0,0,1-7.39-4.42.1.1,0,0,1,0-.08,42.42,42.42,0,0,1-6-6.6c-.33-.44-.66-.9-1-1.34-.57-.84-1.12-1.63-1.61-2.4-.79-1.31-1.47-2.45-2-3.4l-.57-1.07c-.14-.3-.27-.54-.35-.73s-.17-.33-.22-.44a2.15,2.15,0,0,1-.11-.25c.84-.19,1.66-.38,2.45-.6s1.56-.41,2.29-.62v0C350,147.4,359.2,154.08,359.2,154.08Z" transform="translate(237.86)"/><path class="cls-42" d="M542.6,161.47c-25.72,28.46-58.44,55.51-99,73.48l-3.65-25S466.3,230.89,542.6,161.47Z" transform="translate(237.86)"/></g></g></g></svg>