<?xml version="1.0" encoding="utf-8"?>
<!-- Generator: Adobe Illustrator 23.0.3, SVG Export Plug-In . SVG Version: 6.00 Build 0)  -->
<svg version="1.1" id="Layer_1" xmlns="http://www.w3.org/2000/svg" xmlns:xlink="http://www.w3.org/1999/xlink" x="0px" y="0px"
	 viewBox="0 0 650.68 90.38" style="enable-background:new 0 0 650.68 90.38;" xml:space="preserve">
<style type="text/css">
	.st0{fill:#00bdd2;}
	.st1{fill:#01474F;}
	.st2{fill:#FFFFFF;}
</style>
<g>
	<g>
		<path class="st0" d="M176.55,14.22V78h-8.39V30.44L146.97,78h-5.9l-21.29-47.46V78h-8.39V14.22h9.03l23.59,52.71l23.59-52.71
			H176.55z"/>
		<path class="st0" d="M187.06,38.97c2.09-3.9,4.96-6.93,8.62-9.08c3.65-2.15,7.73-3.23,12.21-3.23c4.42,0,8.26,0.95,11.52,2.86
			c3.26,1.91,5.68,4.3,7.28,7.19v-9.22h8.48V78h-8.48v-9.4c-1.66,2.95-4.13,5.39-7.42,7.33c-3.29,1.93-7.11,2.9-11.47,2.9
			c-4.49,0-8.54-1.11-12.16-3.32c-3.63-2.21-6.48-5.31-8.57-9.31c-2.09-3.99-3.13-8.54-3.13-13.64
			C183.92,47.4,184.97,42.87,187.06,38.97z M224.38,42.7c-1.54-2.83-3.61-4.99-6.22-6.5c-2.61-1.5-5.48-2.26-8.62-2.26
			s-5.99,0.74-8.57,2.21c-2.58,1.47-4.64,3.63-6.17,6.45c-1.54,2.83-2.3,6.14-2.3,9.95c0,3.87,0.77,7.23,2.3,10.09
			c1.53,2.86,3.59,5.04,6.17,6.54c2.58,1.51,5.44,2.26,8.57,2.26s6-0.75,8.62-2.26c2.61-1.5,4.68-3.69,6.22-6.54
			c1.53-2.86,2.3-6.19,2.3-10C226.68,48.84,225.91,45.53,224.38,42.7z"/>
		<path class="st0" d="M255.9,34.41v29.77c0,2.46,0.52,4.19,1.57,5.21c1.04,1.01,2.86,1.52,5.44,1.52h6.17V78h-7.56
			c-4.67,0-8.17-1.07-10.51-3.23c-2.34-2.15-3.5-5.68-3.5-10.6V34.41h-6.54v-6.91h6.54V14.78h8.39v12.72h13.18v6.91H255.9z"/>
		<path class="st0" d="M275.52,38.97c2.09-3.9,4.99-6.93,8.71-9.08c3.72-2.15,7.97-3.23,12.76-3.23c6.2,0,11.32,1.51,15.34,4.52
			c4.02,3.01,6.68,7.19,7.97,12.53h-9.03c-0.86-3.07-2.53-5.5-5.02-7.28c-2.49-1.78-5.58-2.67-9.26-2.67
			c-4.79,0-8.66,1.64-11.61,4.93c-2.95,3.29-4.42,7.94-4.42,13.96c0,6.08,1.47,10.78,4.42,14.1c2.95,3.32,6.82,4.98,11.61,4.98
			c3.69,0,6.76-0.86,9.22-2.58c2.46-1.72,4.15-4.18,5.07-7.37h9.03c-1.35,5.16-4.05,9.29-8.11,12.39c-4.06,3.1-9.12,4.65-15.21,4.65
			c-4.79,0-9.05-1.07-12.76-3.23c-3.72-2.15-6.62-5.19-8.71-9.12c-2.09-3.93-3.13-8.54-3.13-13.82
			C272.39,47.43,273.44,42.87,275.52,38.97z"/>
		<path class="st0" d="M363.16,29.01c3.07,1.63,5.48,4.07,7.23,7.33c1.75,3.26,2.63,7.22,2.63,11.89V78h-8.29V49.43
			c0-5.04-1.26-8.89-3.78-11.57c-2.52-2.67-5.96-4.01-10.32-4.01c-4.42,0-7.94,1.38-10.55,4.15c-2.61,2.76-3.92,6.79-3.92,12.07V78
			h-8.39V9.8h8.39v24.88c1.66-2.58,3.95-4.58,6.87-5.99c2.92-1.41,6.19-2.12,9.81-2.12C356.65,26.57,360.09,27.39,363.16,29.01z"/>
		<path class="st0" d="M448.22,14.22V78h-8.39V30.44L418.64,78h-5.9l-21.29-47.46V78h-8.39V14.22h9.03l23.59,52.71l23.59-52.71
			H448.22z"/>
		<path class="st0" d="M504.53,55.6h-40.36c0.24,4.98,1.92,8.91,5.02,11.8c3.1,2.89,6.9,4.33,11.38,4.33c3.62,0,6.65-0.84,9.08-2.53
			c2.43-1.69,4.13-3.95,5.11-6.77h9.03c-1.35,4.85-4.05,8.8-8.11,11.84s-9.09,4.56-15.11,4.56c-4.79,0-9.08-1.07-12.86-3.23
			c-3.78-2.15-6.74-5.21-8.89-9.17c-2.15-3.96-3.23-8.55-3.23-13.78c0-5.22,1.04-9.8,3.13-13.73c2.09-3.93,5.02-6.96,8.8-9.08
			c3.78-2.12,8.12-3.18,13.04-3.18c4.79,0,9.02,1.05,12.67,3.13c3.65,2.09,6.5,4.95,8.52,8.57s3.04,7.71,3.04,12.26
			C504.8,52.16,504.71,53.82,504.53,55.6z M494.02,41c-1.41-2.36-3.33-4.16-5.76-5.39c-2.43-1.23-5.11-1.84-8.06-1.84
			c-4.3,0-7.96,1.4-10.97,4.19c-3.01,2.8-4.67,6.65-4.98,11.57h31.89C496.14,46.2,495.43,43.36,494.02,41z"/>
		<path class="st1" d="M581.57,13.67V78h-12.9V36.16L551.43,78h-9.77l-17.33-41.84V78h-12.9V13.67h14.65l20.46,47.83l20.46-47.83
			H581.57z"/>
		<path class="st1" d="M634.6,17.63c5.13,2.64,9.09,6.41,11.89,11.29c2.79,4.88,4.19,10.55,4.19,17c0,6.45-1.4,12.09-4.19,16.91
			c-2.8,4.82-6.76,8.56-11.89,11.2c-5.13,2.64-11.07,3.96-17.83,3.96h-22.49V13.67h22.49C623.53,13.67,629.47,14.99,634.6,17.63z
			 M631.93,61.78c3.72-3.81,5.58-9.09,5.58-15.85c0-6.7-1.84-11.95-5.53-15.76c-3.69-3.81-8.91-5.71-15.67-5.71h-9.12v43.04h9.12
			C623,67.49,628.21,65.59,631.93,61.78z"/>
	</g>
	<path class="st1" d="M76.3,90.38H14.08C6.3,90.38,0,84.08,0,76.3V14.08C0,6.3,6.3,0,14.08,0H76.3c7.77,0,14.08,6.3,14.08,14.08
		V76.3C90.38,84.08,84.08,90.38,76.3,90.38z"/>
	<polygon class="st2" points="16.51,53.64 32.7,63.25 16.51,75.71 	"/>
	<polygon class="st2" points="57.48,63.09 73.89,53.64 73.89,75.71 	"/>
	<circle class="st2" cx="45.64" cy="30.69" r="10.15"/>
	<path class="st2" d="M73.89,28.93v19.42l-16.64,8.57c-7.82,4.03-17.12,3.97-24.89-0.16l-15.84-8.42V30.69L38.5,42.37
		c3.89,2.07,8.58,1.99,12.4-0.21L73.89,28.93z"/>
</g>
</svg>